<svg version="1.0" xmlns="http://www.w3.org/2000/svg"
 width="836.000000pt" height="832.000000pt" viewBox="0 0 836.000000 832.000000"
 preserveAspectRatio="xMidYMid meet">
<metadata>
Created by potrace 1.16, written by Peter Selinger 2001-2019
</metadata>
<g transform="translate(0.000000,832.000000) scale(0.100000,-0.100000)"
fill="#000000" stroke="none">
<path d="M4045 8113 c-122 -14 -109 -7 -228 -127 -174 -174 -342 -360 -373
-412 -11 -17 -53 -78 -94 -135 -41 -57 -83 -116 -93 -132 -10 -16 -28 -40 -41
-54 -13 -14 -30 -37 -38 -52 -7 -14 -30 -48 -50 -76 -21 -27 -38 -54 -38 -58
0 -4 -18 -32 -40 -61 -22 -29 -40 -56 -40 -61 0 -4 -10 -22 -23 -39 -13 -17
-47 -78 -77 -136 -29 -58 -63 -121 -75 -140 -20 -32 -38 -80 -30 -80 2 0 27
46 56 103 28 56 63 119 76 139 12 21 23 41 23 45 0 3 15 29 34 57 18 28 63 96
98 151 36 55 72 106 81 114 10 7 17 18 17 23 0 5 21 39 47 76 128 183 240 340
261 367 58 73 271 304 305 330 20 16 47 43 58 59 62 88 145 104 449 87 210
-12 468 -37 520 -50 19 -5 58 -14 85 -19 104 -22 305 -73 361 -92 31 -11 64
-20 73 -20 9 0 29 -7 45 -15 15 -8 35 -15 42 -15 8 0 22 -4 32 -9 37 -19 142
-59 138 -53 -15 24 -215 102 -261 102 -12 0 -25 4 -30 8 -6 4 -28 14 -50 21
-22 7 -49 16 -60 21 -11 4 -58 16 -105 25 -47 9 -103 21 -125 26 -50 11 -124
27 -190 40 -124 24 -643 54 -740 42z"/>
<path d="M1927 7495 c-20 -19 -40 -35 -45 -35 -10 0 -73 -47 -169 -125 -34
-27 -84 -68 -112 -89 -28 -22 -51 -43 -51 -48 0 -5 15 2 33 17 70 57 137 105
146 105 5 0 11 6 14 14 3 8 32 34 64 57 32 24 81 60 109 81 28 21 58 38 68 38
21 0 32 -28 17 -43 -6 -6 -11 -18 -11 -26 0 -8 -9 -35 -21 -60 -11 -25 -24
-55 -29 -66 -11 -30 -26 -67 -38 -95 -63 -151 -99 -259 -133 -390 -12 -47 -25
-96 -30 -110 -9 -24 -9 -24 6 -6 8 11 15 27 15 36 0 9 3 20 7 24 9 9 29 83 43
156 6 30 20 75 31 100 12 25 27 59 35 75 7 17 23 59 34 95 22 66 36 101 71
176 10 23 19 51 19 63 0 11 5 21 10 21 14 0 13 43 -2 58 -20 20 -43 14 -81
-23z"/>
<path d="M4309 6987 c-14 -12 -59 -49 -100 -81 -304 -244 -625 -560 -812 -800
-34 -43 -95 -119 -134 -168 -40 -49 -73 -94 -73 -100 0 -9 36 32 90 103 14 18
51 65 83 104 32 38 81 99 110 134 102 125 305 335 437 451 40 36 103 93 139
127 64 60 227 195 273 225 13 9 21 18 18 21 -3 3 -17 -5 -31 -16z"/>
<path d="M5800 6650 c-8 -5 -25 -10 -38 -10 -12 0 -41 -8 -65 -19 -23 -10 -69
-29 -102 -41 -33 -12 -80 -30 -105 -40 -87 -35 -125 -49 -165 -61 -22 -6 -47
-15 -55 -20 -34 -19 -117 -59 -153 -73 -21 -9 -57 -28 -80 -44 -23 -15 -64
-39 -92 -52 -27 -13 -63 -34 -79 -48 -17 -13 -53 -34 -80 -47 -28 -12 -64 -37
-81 -55 -28 -31 -27 -31 26 8 31 23 62 42 69 42 7 0 33 15 59 34 25 18 82 52
126 75 44 22 96 49 115 60 32 18 188 92 235 112 11 4 49 18 85 30 35 11 73 25
83 31 24 12 165 64 232 85 63 20 115 43 95 43 -8 0 -22 -5 -30 -10z"/>
<path d="M4615 6085 c-16 -13 -38 -31 -47 -40 -10 -8 -20 -15 -23 -15 -3 0
-31 -19 -62 -42 -31 -24 -71 -52 -91 -64 -19 -11 -39 -28 -44 -38 -5 -10 -23
-25 -38 -35 -53 -31 -283 -249 -375 -355 -27 -31 -89 -98 -137 -149 -49 -50
-88 -97 -88 -103 0 -6 -10 -20 -22 -31 -13 -11 -32 -32 -43 -46 -11 -15 -39
-48 -62 -74 -24 -26 -43 -52 -43 -57 0 -4 -20 -39 -45 -76 -25 -37 -53 -85
-62 -107 -10 -21 -33 -62 -52 -91 -18 -29 -31 -55 -29 -58 6 -6 54 70 90 142
14 29 44 80 67 114 23 34 41 64 41 67 0 4 24 34 52 67 29 34 56 66 60 71 56
72 111 140 121 149 12 10 145 157 204 225 43 49 60 66 144 142 193 174 210
187 498 397 25 17 38 32 30 32 -7 0 -27 -12 -44 -25z"/>
<path d="M4890 5710 c-31 -10 -74 -27 -95 -39 -22 -11 -46 -21 -53 -21 -12 0
-217 -94 -307 -142 -22 -11 -67 -34 -100 -51 -33 -17 -72 -40 -87 -52 -15 -13
-46 -32 -70 -44 -24 -11 -65 -39 -92 -61 -28 -23 -59 -46 -70 -52 -24 -13
-376 -329 -376 -338 0 -3 -32 -39 -71 -80 -79 -84 -207 -239 -235 -285 -56
-91 -88 -135 -100 -135 -21 0 -17 34 9 82 54 100 52 96 82 151 23 41 10 33
-16 -10 -106 -173 -126 -224 -93 -237 21 -8 30 -1 61 47 14 23 32 46 40 50 7
4 20 24 28 44 8 20 21 41 29 47 7 6 35 38 61 71 59 74 162 191 193 218 12 12
22 26 22 33 0 7 4 14 9 16 5 2 41 32 81 68 40 36 94 83 119 105 25 22 68 61
95 88 28 26 54 47 58 47 4 0 27 17 52 38 74 60 98 77 149 102 26 13 55 32 64
42 9 10 24 18 34 18 10 0 20 4 23 9 6 8 33 22 216 108 52 25 111 53 130 63 34
18 63 29 185 74 108 39 128 61 25 26z"/>
<path d="M197 4783 c-12 -12 -7 -23 7 -17 19 7 32 -20 40 -86 3 -30 11 -77 17
-105 5 -27 14 -70 18 -95 20 -114 74 -373 92 -450 12 -47 32 -132 44 -190 26
-115 52 -204 54 -179 1 9 -5 39 -13 65 -15 52 -67 273 -85 364 -7 30 -25 120
-42 200 -17 80 -35 179 -40 220 -27 209 -60 306 -92 273z"/>
<path d="M6231 4747 c15 -13 164 -87 174 -87 7 0 18 -6 24 -14 7 -8 40 -28 74
-45 34 -16 76 -42 92 -57 17 -14 41 -34 55 -42 14 -9 29 -22 33 -29 4 -7 13
-13 18 -13 17 0 210 -149 254 -195 22 -23 48 -45 58 -48 9 -4 22 -18 27 -32 5
-14 16 -28 24 -31 8 -3 40 -39 71 -80 32 -41 61 -74 66 -74 5 0 9 -5 9 -11 0
-11 44 -74 72 -102 10 -10 27 -35 38 -57 11 -21 31 -51 45 -66 14 -15 34 -46
44 -68 10 -23 34 -62 54 -89 21 -26 37 -52 37 -59 0 -16 63 -138 72 -138 4 0
-4 19 -17 43 -14 23 -30 58 -36 77 -6 19 -19 44 -29 55 -10 11 -32 47 -50 80
-30 57 -117 191 -159 245 -201 258 -302 365 -459 483 -53 40 -104 76 -112 80
-8 4 -46 32 -84 62 -39 30 -95 68 -125 85 -31 17 -63 34 -71 39 -61 34 -217
102 -199 88z"/>
<path d="M7480 4656 c8 -10 22 -21 31 -25 22 -8 176 -138 278 -235 56 -53 281
-302 281 -311 0 -4 21 -30 46 -59 26 -28 55 -69 65 -91 10 -22 23 -47 27 -55
27 -47 32 -66 32 -124 0 -36 -4 -67 -9 -70 -5 -3 -11 -20 -14 -38 -23 -136
-70 -359 -81 -388 -8 -19 -26 -75 -41 -125 -15 -49 -33 -103 -39 -120 -43
-103 -93 -255 -81 -245 7 6 15 24 19 41 7 35 51 153 72 191 17 31 49 137 59
192 3 21 12 48 19 60 8 12 19 50 26 86 7 36 19 90 26 120 8 30 14 73 14 97 0
23 5 45 10 48 6 3 10 22 10 41 0 19 5 34 10 34 14 0 13 145 -2 173 -6 12 -15
29 -19 37 -5 8 -17 33 -27 55 -11 22 -38 61 -61 87 -22 25 -41 49 -41 52 0 3
-36 42 -80 88 -44 45 -80 86 -80 91 0 4 -19 28 -42 52 -24 24 -50 52 -59 62
-8 10 -39 38 -68 63 -29 25 -73 64 -97 88 -25 23 -50 42 -55 42 -5 0 -23 16
-40 35 -17 19 -38 35 -47 35 -8 0 -25 8 -36 18 -20 16 -20 16 -6 -2z"/>
<path d="M2527 4265 c-11 -55 -35 -171 -48 -225 -53 -222 -65 -964 -19 -1190
6 -30 13 -84 17 -119 5 -58 4 -63 -12 -58 -11 5 -15 3 -13 -5 3 -7 11 -13 19
-13 18 0 18 117 -1 195 -10 39 -14 168 -17 455 -6 491 2 590 69 861 11 45 18
94 16 110 -4 27 -5 26 -11 -11z"/>
<path d="M826 4220 c6 -41 32 -137 44 -165 8 -19 13 -43 27 -125 3 -19 9 -39
13 -45 4 -5 10 -30 14 -54 4 -24 10 -49 14 -55 13 -21 41 -111 42 -133 0 -12
5 -25 10 -28 6 -3 10 -16 10 -28 0 -13 7 -32 15 -44 8 -12 21 -49 29 -83 8
-35 20 -68 25 -73 6 -6 11 -18 11 -27 0 -9 8 -34 19 -56 10 -21 22 -55 26 -74
3 -19 22 -66 40 -105 19 -38 43 -92 54 -119 12 -27 23 -47 26 -44 5 5 -13 52
-65 163 -15 33 -31 76 -35 95 -4 19 -18 56 -31 82 -13 26 -24 54 -24 63 0 9
-6 26 -14 38 -7 12 -17 42 -20 67 -4 24 -15 58 -25 75 -10 16 -23 50 -30 75
-7 25 -24 81 -38 125 -35 110 -43 141 -72 278 -5 23 -18 69 -30 101 -11 33
-21 69 -21 80 0 12 -5 28 -10 36 -7 11 -8 5 -4 -20z"/>
<path d="M4490 4041 c-36 -7 -45 -11 -207 -88 -51 -23 -96 -43 -101 -43 -4 0
-13 -9 -20 -20 -7 -11 -17 -20 -24 -20 -28 0 -182 -114 -266 -197 -29 -29 -57
-53 -62 -53 -10 0 -162 -151 -225 -225 -22 -25 -50 -64 -62 -86 -12 -22 -28
-48 -35 -57 -8 -9 -36 -60 -62 -112 -27 -52 -54 -102 -62 -111 -8 -8 -14 -22
-14 -30 0 -20 20 11 74 115 98 186 166 278 310 419 104 102 104 101 211 188
148 120 308 215 475 283 35 14 74 26 86 26 13 0 26 5 29 10 7 11 6 11 -45 1z"/>
<path d="M1740 3343 c5 -15 19 -66 31 -113 11 -47 25 -94 29 -105 16 -40 38
-102 80 -225 46 -137 101 -283 130 -345 10 -22 28 -65 40 -95 19 -46 109 -237
180 -380 32 -64 82 -155 95 -170 6 -8 27 -42 45 -75 19 -33 58 -98 88 -145 30
-47 75 -118 101 -158 44 -70 108 -160 216 -307 28 -37 70 -95 94 -129 58 -80
199 -251 267 -325 30 -32 54 -61 54 -64 0 -4 43 -50 95 -103 53 -53 94 -101
92 -108 -4 -12 -25 -12 -97 0 -61 9 -46 -3 25 -21 61 -16 85 -9 85 24 -1 9
-44 62 -98 118 -90 96 -156 168 -242 267 -43 49 -137 175 -175 233 -15 24 -31
43 -36 43 -8 0 -39 41 -103 135 -19 28 -41 57 -50 64 -9 7 -16 19 -16 26 0 7
-7 18 -16 26 -8 7 -27 34 -40 61 -13 26 -28 48 -33 48 -4 0 -23 28 -41 63 -18
34 -44 78 -59 97 -14 19 -33 47 -41 62 -37 67 -95 164 -121 203 -16 24 -29 48
-29 54 0 6 -4 11 -10 11 -5 0 -10 5 -10 10 0 6 -11 28 -25 50 -14 22 -25 44
-25 50 0 6 -34 80 -75 165 -41 84 -75 156 -75 159 0 4 -15 39 -33 79 -19 39
-44 104 -57 142 -13 39 -26 75 -30 80 -5 6 -21 53 -38 105 -17 52 -40 120 -52
150 -13 30 -30 84 -40 120 -10 36 -27 92 -39 125 -12 32 -21 69 -21 81 0 12
-6 27 -14 34 -13 10 -13 7 -6 -17z"/>
<path d="M3328 2943 c-8 -10 -30 -65 -48 -123 -18 -58 -36 -114 -41 -125 -4
-11 -10 -31 -12 -45 -2 -14 -12 -61 -21 -105 -9 -44 -21 -105 -27 -135 -6 -33
-9 -137 -6 -265 5 -208 10 -272 27 -310 5 -11 14 -45 21 -75 6 -30 14 -59 18
-65 11 -18 30 -99 31 -130 0 -16 7 -39 15 -49 8 -11 15 -28 15 -38 0 -11 11
-36 25 -56 30 -44 33 -36 5 10 -11 18 -20 42 -20 54 0 11 -7 29 -15 40 -8 10
-15 30 -15 44 0 14 -7 50 -16 80 -22 80 -49 195 -63 270 -15 81 -17 431 -3
485 6 22 13 67 16 100 9 82 23 140 68 280 21 66 38 124 38 129 0 5 7 18 17 28
9 10 14 18 11 18 -3 0 -12 -8 -20 -17z"/>
<path d="M6985 2844 c29 -65 42 -116 80 -297 25 -123 26 -137 22 -390 -3 -185
-9 -283 -19 -332 -9 -38 -23 -105 -32 -148 -9 -43 -29 -112 -46 -154 -38 -95
-38 -104 1 -28 17 33 40 103 51 155 11 52 28 136 39 185 35 168 35 539 1 690
-6 22 -20 90 -32 150 -21 103 -59 207 -81 221 -5 3 2 -20 16 -52z"/>
<path d="M1800 1938 c0 -9 143 -223 176 -261 16 -19 36 -44 44 -57 30 -47 174
-236 214 -281 23 -26 50 -57 61 -71 11 -13 48 -58 83 -99 34 -41 88 -105 120
-143 76 -91 213 -230 286 -292 33 -27 69 -58 81 -69 93 -86 155 -123 235 -138
52 -11 33 0 -41 23 -49 15 -86 35 -118 64 -27 22 -72 61 -102 85 -71 59 -341
333 -390 396 -21 28 -70 88 -109 135 -79 94 -257 320 -279 354 -8 11 -33 44
-56 71 -37 46 -74 99 -138 200 -31 48 -66 92 -67 83z"/>
<path d="M6080 483 c-106 -58 -280 -134 -355 -155 -38 -10 -85 -24 -103 -30
-19 -5 -57 -14 -85 -18 -29 -5 -83 -15 -120 -24 -98 -22 -380 -32 -492 -17
-91 12 -195 34 -250 53 -16 5 -52 14 -78 18 -26 5 -78 23 -115 41 -37 18 -76
35 -87 39 -37 14 -170 80 -200 100 -39 26 -58 26 -25 0 32 -26 236 -126 275
-136 17 -4 50 -18 74 -31 24 -12 55 -23 68 -23 13 0 38 -7 55 -16 18 -9 59
-20 92 -25 34 -5 104 -15 156 -24 152 -24 367 -17 591 19 94 15 113 20 154 36
11 4 44 13 72 20 92 21 407 163 433 195 16 19 16 19 -60 -22z"/>
</g>
</svg>
