<?xml version="1.0" encoding="UTF-8"?>
<!DOCTYPE svg PUBLIC "-//W3C//DTD SVG 1.1//EN" "http://www.w3.org/Graphics/SVG/1.1/DTD/svg11.dtd">
<svg xmlns="http://www.w3.org/2000/svg" version="1.1" width="944px" height="122px" style="shape-rendering:geometricPrecision; text-rendering:geometricPrecision; image-rendering:optimizeQuality; fill-rule:evenodd; clip-rule:evenodd" xmlns:xlink="http://www.w3.org/1999/xlink">
<g><path style="opacity:1" fill="#e9eaec" d="M 324.5,15.5 C 324.833,15.5 325.167,15.5 325.5,15.5C 326.78,16.9313 328.447,17.5979 330.5,17.5C 332.424,17.7107 332.757,18.3774 331.5,19.5C 329.102,19.2594 327.102,19.9261 325.5,21.5C 324.486,22.6737 323.153,23.3404 321.5,23.5C 319.326,23.7497 317.659,24.7497 316.5,26.5C 315.71,27.4013 314.71,28.0679 313.5,28.5C 311.973,28.427 310.973,29.0937 310.5,30.5C 307.833,33.8333 304.833,36.8333 301.5,39.5C 300.094,39.9731 299.427,40.9731 299.5,42.5C 298.094,42.9731 297.427,43.9731 297.5,45.5C 294.793,48.2466 293.127,51.5799 292.5,55.5C 291.073,57.1484 290.24,59.1484 290,61.5C 289.005,66.4535 288.338,71.4535 288,76.5C 287.5,68.1733 287.334,59.84 287.5,51.5C 289.04,49.1617 289.706,46.4951 289.5,43.5C 289.263,42.209 289.596,41.209 290.5,40.5C 291.931,39.2196 292.598,37.5529 292.5,35.5C 292.992,33.1815 293.992,31.1815 295.5,29.5C 296.906,29.0269 297.573,28.0269 297.5,26.5C 299.262,25.7377 300.262,24.4044 300.5,22.5C 301.974,21.5637 302.974,20.2303 303.5,18.5C 304.962,17.5423 306.295,16.3756 307.5,15C 313.195,14.3742 318.862,14.5409 324.5,15.5 Z"/></g>
<g><path style="opacity:0.184" fill="#2f353e" d="M 324.5,15.5 C 318.862,14.5409 313.195,14.3742 307.5,15C 306.295,16.3756 304.962,17.5423 303.5,18.5C 304.618,14.891 307.118,12.891 311,12.5C 314.794,13.2297 318.627,13.7297 322.5,14C 323.416,14.2784 324.082,14.7784 324.5,15.5 Z"/></g>
<g><path style="opacity:0.016" fill="#21262d" d="M 325.5,15.5 C 327.698,15.1201 329.365,15.7868 330.5,17.5C 328.447,17.5979 326.78,16.9313 325.5,15.5 Z"/></g>
<g><path style="opacity:0.686" fill="#454b55" d="M 104.5,20.5 C 103.518,19.8592 102.518,19.1925 101.5,18.5C 100.482,19.1925 99.4822,19.8592 98.5,20.5C 100.5,15.1667 102.5,15.1667 104.5,20.5 Z"/></g>
<g><path style="opacity:0.459" fill="#313640" d="M 221.5,21.5 C 216.183,19.5628 210.683,18.5628 205,18.5C 199.03,18.7697 193.196,19.7697 187.5,21.5C 192.575,18.1517 198.242,16.8184 204.5,17.5C 210.758,16.8184 216.425,18.1517 221.5,21.5 Z"/></g>
<g><path style="opacity:0.486" fill="#323842" d="M 921.5,20.5 C 912.508,17.8799 903.508,17.8799 894.5,20.5C 895.842,19.207 897.509,18.3736 899.5,18C 905.167,17.3333 910.833,17.3333 916.5,18C 918.491,18.3736 920.158,19.207 921.5,20.5 Z"/></g>
<g><path style="opacity:1" fill="#f0f1f2" d="M 104.5,20.5 C 106.771,24.7091 108.771,29.0424 110.5,33.5C 110.402,35.5529 111.069,37.2196 112.5,38.5C 114.674,41.5154 116.341,44.8487 117.5,48.5C 117.166,51.491 118.166,53.8243 120.5,55.5C 121.674,56.5137 122.34,57.847 122.5,59.5C 122.402,61.5529 123.069,63.2196 124.5,64.5C 128.589,71.0784 131.922,78.0784 134.5,85.5C 134.12,87.698 134.787,89.3646 136.5,90.5C 138.341,92.8485 139.674,95.5152 140.5,98.5C 140.5,99.8333 140.5,101.167 140.5,102.5C 135.489,102.666 130.489,102.499 125.5,102C 124.601,100.348 123.601,98.8484 122.5,97.5C 121.662,97.1583 121.328,96.4916 121.5,95.5C 121.579,94.0695 121.246,92.7362 120.5,91.5C 107.833,90.1667 95.1667,90.1667 82.5,91.5C 81.2528,93.323 80.5861,95.323 80.5,97.5C 80.2041,99.403 79.5375,101.07 78.5,102.5C 73.1667,102.5 67.8333,102.5 62.5,102.5C 62.5,101.167 62.5,99.8333 62.5,98.5C 62.6596,96.847 63.3263,95.5137 64.5,94.5C 66.9569,91.2488 68.6236,87.5821 69.5,83.5C 69.6596,81.847 70.3263,80.5137 71.5,79.5C 73.8337,77.8243 74.8337,75.491 74.5,72.5C 74.3284,71.5084 74.6618,70.8417 75.5,70.5C 77.6246,67.9122 78.9579,64.9122 79.5,61.5C 80.3257,58.5152 81.659,55.8485 83.5,53.5C 85.8337,51.8243 86.8337,49.491 86.5,46.5C 86.6596,44.847 87.3263,43.5137 88.5,42.5C 89.9313,41.2196 90.5979,39.5529 90.5,37.5C 91.9922,33.1822 93.9922,29.1822 96.5,25.5C 98.2132,24.3646 98.8799,22.698 98.5,20.5C 99.4822,19.8592 100.482,19.1925 101.5,18.5C 102.518,19.1925 103.518,19.8592 104.5,20.5 Z M 102.5,52.5 C 102.263,53.791 102.596,54.791 103.5,55.5C 104.376,59.5821 106.043,63.2488 108.5,66.5C 108.506,69.5176 109.506,72.1843 111.5,74.5C 104.833,75.8333 98.1667,75.8333 91.5,74.5C 93.0761,72.0207 94.0761,69.354 94.5,66.5C 96.2927,64.5739 97.2927,62.2406 97.5,59.5C 98.6737,58.4863 99.3404,57.153 99.5,55.5C 100.272,54.3065 101.272,53.3065 102.5,52.5 Z"/></g>
<g><path style="opacity:1" fill="#fcfcfc" d="M 381.5,18.5 C 382.609,18.5569 383.609,18.8902 384.5,19.5C 385.833,20.1667 386.833,21.1667 387.5,22.5C 388.167,23.8333 389.167,24.8333 390.5,25.5C 391.5,25.8333 392.167,26.5 392.5,27.5C 396.773,33.4422 401.773,38.7756 407.5,43.5C 407.833,44.5 408.5,45.1667 409.5,45.5C 411.167,46.5 412.5,47.8333 413.5,49.5C 417.773,55.4422 422.773,60.7756 428.5,65.5C 428.833,66.5 429.5,67.1667 430.5,67.5C 430.833,68.5 431.5,69.1667 432.5,69.5C 433.496,53.3419 433.83,37.0085 433.5,20.5C 437.833,20.5 442.167,20.5 446.5,20.5C 446.169,48.0051 446.502,75.3384 447.5,102.5C 446.295,103.686 444.961,103.686 443.5,102.5C 441.5,101.167 439.833,99.5 438.5,97.5C 438.5,96.1667 437.833,95.5 436.5,95.5C 436.5,94.1667 435.833,93.5 434.5,93.5C 431.564,88.8947 427.898,84.8947 423.5,81.5C 420.5,79.1667 417.833,76.5 415.5,73.5C 415.5,72.1667 414.833,71.5 413.5,71.5C 413.5,69.5 412.5,68.5 410.5,68.5C 407.564,63.8947 403.898,59.8947 399.5,56.5C 399.167,55.5 398.5,54.8333 397.5,54.5C 397.5,54.1667 397.5,53.8333 397.5,53.5C 396.791,52.596 395.791,52.2627 394.5,52.5C 394.5,68.8333 394.5,85.1667 394.5,101.5C 390.167,101.5 385.833,101.5 381.5,101.5C 381.5,73.8333 381.5,46.1667 381.5,18.5 Z"/></g>
<g><path style="opacity:1" fill="#f3f3f4" d="M 715.5,18.5 C 716.978,18.238 718.311,18.5713 719.5,19.5C 719.942,20.7387 720.609,21.7387 721.5,22.5C 723.008,24.1815 724.008,26.1815 724.5,28.5C 724.182,31.4815 725.182,33.8148 727.5,35.5C 728.674,36.5137 729.34,37.847 729.5,39.5C 730.376,43.5821 732.043,47.2488 734.5,50.5C 737.07,55.3106 739.403,60.3106 741.5,65.5C 742.376,69.5821 744.043,73.2488 746.5,76.5C 748.293,78.4261 749.293,80.7594 749.5,83.5C 749.66,85.153 750.326,86.4863 751.5,87.5C 751.157,89.4832 751.824,90.8166 753.5,91.5C 753.402,93.5529 754.069,95.2196 755.5,96.5C 755.877,98.258 756.544,99.9246 757.5,101.5C 752.167,102.833 746.833,102.833 741.5,101.5C 740.059,98.2765 738.392,95.2765 736.5,92.5C 730.705,91.1704 724.538,90.5038 718,90.5C 711.657,90.5004 705.491,90.8338 699.5,91.5C 698.326,92.5137 697.66,93.847 697.5,95.5C 696.463,96.9303 695.796,98.597 695.5,100.5C 695.672,101.492 695.338,102.158 694.5,102.5C 689.167,102.5 683.833,102.5 678.5,102.5C 678.5,101.5 678.5,100.5 678.5,99.5C 680.411,93.4135 683.077,87.7468 686.5,82.5C 687.931,81.2196 688.598,79.5529 688.5,77.5C 688.328,76.5084 688.662,75.8417 689.5,75.5C 691.176,74.8166 691.843,73.4832 691.5,71.5C 693.213,70.3646 693.88,68.698 693.5,66.5C 694.326,63.5152 695.659,60.8485 697.5,58.5C 699.625,55.9122 700.958,52.9122 701.5,49.5C 701.66,47.847 702.326,46.5137 703.5,45.5C 705.213,44.3646 705.88,42.698 705.5,40.5C 705.66,38.847 706.326,37.5137 707.5,36.5C 709.957,33.2488 711.624,29.5821 712.5,25.5C 713.227,23.0462 714.227,20.7128 715.5,18.5 Z M 718.5,52.5 C 718.328,53.4916 718.662,54.1583 719.5,54.5C 721.101,61.0295 723.767,67.0295 727.5,72.5C 727.328,73.4916 727.662,74.1583 728.5,74.5C 727.737,75.2679 726.737,75.7679 725.5,76C 719.843,76.4994 714.176,76.6661 708.5,76.5C 708.389,75.8826 708.056,75.3826 707.5,75C 711.069,67.3627 714.736,59.8627 718.5,52.5 Z"/></g>
<g><path style="opacity:0.204" fill="#242931" d="M 721.5,22.5 C 720.609,21.7387 719.942,20.7387 719.5,19.5C 718.311,18.5713 716.978,18.238 715.5,18.5C 716.204,16.6558 717.537,16.1558 719.5,17C 720.861,18.5843 721.528,20.4176 721.5,22.5 Z"/></g>
<g><path style="opacity:1" fill="#f6f7f7" d="M 221.5,21.5 C 222.492,21.3284 223.158,21.6618 223.5,22.5C 223.973,23.9063 224.973,24.573 226.5,24.5C 226.973,25.9063 227.973,26.573 229.5,26.5C 230.539,28.5311 232.205,29.8645 234.5,30.5C 235.833,31.1667 235.833,31.8333 234.5,32.5C 233.094,32.9731 232.427,33.9731 232.5,35.5C 232.5,36.1667 232.167,36.5 231.5,36.5C 230.094,36.9731 229.427,37.9731 229.5,39.5C 229.5,40.1667 229.167,40.5 228.5,40.5C 227.094,40.9731 226.427,41.9731 226.5,43.5C 224.754,41.7484 222.754,40.4151 220.5,39.5C 220.027,38.0937 219.027,37.427 217.5,37.5C 210.644,33.423 203.311,32.5897 195.5,35C 194.058,35.3768 193.058,36.2101 192.5,37.5C 190.973,37.427 189.973,38.0937 189.5,39.5C 186.5,40.5 184.5,42.5 183.5,45.5C 182.094,45.9731 181.427,46.9731 181.5,48.5C 179.689,50.3854 178.522,52.7187 178,55.5C 177.333,59.1667 177.333,62.8333 178,66.5C 178.232,67.7375 178.732,68.7375 179.5,69.5C 179.461,72.089 180.461,74.089 182.5,75.5C 182.427,77.0269 183.094,78.0269 184.5,78.5C 186.525,80.1964 188.525,81.863 190.5,83.5C 196.135,88.2822 202.469,89.6156 209.5,87.5C 212.756,86.2137 216.089,84.8804 219.5,83.5C 222.093,82.2464 224.427,80.5798 226.5,78.5C 226.427,80.0269 227.094,81.0269 228.5,81.5C 228.738,83.4044 229.738,84.7377 231.5,85.5C 231.427,87.0269 232.094,88.0269 233.5,88.5C 233.5,89.8333 233.5,91.1667 233.5,92.5C 233.167,93.5 232.5,94.1667 231.5,94.5C 229.973,94.427 228.973,95.0937 228.5,96.5C 228.027,97.9063 227.027,98.573 225.5,98.5C 222.515,99.3257 219.849,100.659 217.5,102.5C 210.863,103.276 204.196,103.609 197.5,103.5C 194.495,101.723 191.162,100.723 187.5,100.5C 185.847,100.34 184.514,99.6737 183.5,98.5C 183.027,97.0937 182.027,96.427 180.5,96.5C 179.089,94.086 177.089,92.4194 174.5,91.5C 173.5,91.1667 172.833,90.5 172.5,89.5C 164.92,78.7502 161.587,66.7502 162.5,53.5C 164.411,49.767 165.744,45.767 166.5,41.5C 166.328,40.5084 166.662,39.8417 167.5,39.5C 168.906,39.0269 169.573,38.0269 169.5,36.5C 173.5,33.1667 177.167,29.5 180.5,25.5C 182.027,25.573 183.027,24.9063 183.5,23.5C 184.514,22.3263 185.847,21.6596 187.5,21.5C 193.196,19.7697 199.03,18.7697 205,18.5C 210.683,18.5628 216.183,19.5628 221.5,21.5 Z"/></g>
<g><path style="opacity:0.165" fill="#1b1d21" d="M 303.5,18.5 C 302.974,20.2303 301.974,21.5637 300.5,22.5C 300.088,20.0274 301.088,18.6941 303.5,18.5 Z"/></g>
<g><path style="opacity:0.02" fill="#16191f" d="M 818.5,19.5 C 821.716,19.3455 824.383,20.3455 826.5,22.5C 823.603,21.871 820.936,20.871 818.5,19.5 Z"/></g>
<g><path style="opacity:1" fill="#f6f7f8" d="M 921.5,20.5 C 923.027,20.427 924.027,21.0937 924.5,22.5C 925.262,24.2624 926.596,25.2624 928.5,25.5C 928.738,27.4044 929.738,28.7377 931.5,29.5C 932.338,29.8417 932.672,30.5084 932.5,31.5C 932.608,33.5138 931.942,35.1805 930.5,36.5C 930.5,37.1667 930.167,37.5 929.5,37.5C 927.973,37.427 926.973,38.0937 926.5,39.5C 924.973,39.427 923.973,40.0937 923.5,41.5C 921.164,39.1782 918.497,37.1782 915.5,35.5C 914.209,35.7373 913.209,35.404 912.5,34.5C 909.36,33.3592 906.027,33.1925 902.5,34C 900.676,34.66 899.343,35.8267 898.5,37.5C 897.007,38.3121 896.34,39.6455 896.5,41.5C 896.52,42.7261 896.853,43.7261 897.5,44.5C 898.129,46.9971 899.796,48.3304 902.5,48.5C 909.043,52.5817 916.043,55.915 923.5,58.5C 924.035,60.4456 925.368,61.4456 927.5,61.5C 928.167,62.8333 929.167,63.8333 930.5,64.5C 930.833,65.5 931.5,66.1667 932.5,66.5C 932.427,68.0269 933.094,69.0269 934.5,69.5C 935.833,75.8333 935.833,82.1667 934.5,88.5C 934.155,91.1979 932.822,93.1979 930.5,94.5C 929.5,94.8333 928.833,95.5 928.5,96.5C 927.738,98.2624 926.404,99.2624 924.5,99.5C 922.181,99.9925 920.181,100.992 918.5,102.5C 911.863,103.276 905.196,103.609 898.5,103.5C 898.167,103.5 897.833,103.5 897.5,103.5C 895.898,101.926 893.898,101.259 891.5,101.5C 890.486,100.326 889.153,99.6596 887.5,99.5C 886.738,97.7376 885.404,96.7376 883.5,96.5C 881.833,95.5 880.5,94.1667 879.5,92.5C 879.573,90.9731 878.906,89.9731 877.5,89.5C 877.615,87.0532 878.615,85.0532 880.5,83.5C 882.027,83.573 883.027,82.9063 883.5,81.5C 885.5,80.5 887.5,79.5 889.5,78.5C 889.427,80.0269 890.094,81.0269 891.5,81.5C 891.5,83.5 892.5,84.5 894.5,84.5C 895.975,86.4095 897.975,87.5762 900.5,88C 904.358,88.8099 908.024,88.6433 911.5,87.5C 912.93,86.4625 914.597,85.7959 916.5,85.5C 918.5,85.5 919.5,84.5 919.5,82.5C 920.917,79.6596 920.584,76.993 918.5,74.5C 918.027,73.0937 917.027,72.427 915.5,72.5C 915.027,71.0937 914.027,70.427 912.5,70.5C 910.421,68.127 907.754,66.7936 904.5,66.5C 903.508,66.6716 902.842,66.3382 902.5,65.5C 901.365,63.7868 899.698,63.1201 897.5,63.5C 896.508,63.6716 895.842,63.3382 895.5,62.5C 894.341,60.7497 892.674,59.7497 890.5,59.5C 888.452,56.785 886.118,54.4517 883.5,52.5C 881.239,45.9533 880.906,39.2866 882.5,32.5C 882.328,31.5084 882.662,30.8417 883.5,30.5C 885.262,29.7377 886.262,28.4044 886.5,26.5C 889.089,25.5806 891.089,23.914 892.5,21.5C 892.842,20.6618 893.508,20.3284 894.5,20.5C 903.508,17.8799 912.508,17.8799 921.5,20.5 Z"/></g>
<g><path style="opacity:1" fill="#fefefe" d="M 14.5,20.5 C 19.1667,20.5 23.8333,20.5 28.5,20.5C 28.5,47.5 28.5,74.5 28.5,101.5C 23.8333,101.5 19.1667,101.5 14.5,101.5C 14.5,74.5 14.5,47.5 14.5,20.5 Z"/></g>
<g><path style="opacity:0.801" fill="#aeb8c3" d="M 14.5,20.5 C 19.3054,19.5128 24.3054,19.1795 29.5,19.5C 29.5,47.1667 29.5,74.8333 29.5,102.5C 24.5,102.5 19.5,102.5 14.5,102.5C 14.5,102.167 14.5,101.833 14.5,101.5C 19.1667,101.5 23.8333,101.5 28.5,101.5C 28.5,74.5 28.5,47.5 28.5,20.5C 23.8333,20.5 19.1667,20.5 14.5,20.5 Z"/></g>
<g><path style="opacity:0.157" fill="#1c2027" d="M 331.5,19.5 C 329.786,20.7384 327.786,21.405 325.5,21.5C 327.102,19.9261 329.102,19.2594 331.5,19.5 Z"/></g>
<g><path style="opacity:0.24" fill="#141921" d="M 598.5,19.5 C 603.975,18.5111 609.642,18.1778 615.5,18.5C 615.5,41.1667 615.5,63.8333 615.5,86.5C 627.5,86.5 639.5,86.5 651.5,86.5C 651.822,92.358 651.489,98.0247 650.5,103.5C 650.5,103.167 650.5,102.833 650.5,102.5C 650.821,97.3054 650.487,92.3054 649.5,87.5C 637.833,87.5 626.167,87.5 614.5,87.5C 614.5,64.8333 614.5,42.1667 614.5,19.5C 609.5,19.5 604.5,19.5 599.5,19.5C 599.167,19.5 598.833,19.5 598.5,19.5 Z"/></g>
<g><path style="opacity:1" fill="#f9f9fa" d="M 818.5,19.5 C 820.936,20.871 823.603,21.871 826.5,22.5C 826.973,23.9063 827.973,24.573 829.5,24.5C 830.167,24.5 830.5,24.8333 830.5,25.5C 831.167,26.8333 832.167,27.8333 833.5,28.5C 833.427,30.0269 834.094,31.0269 835.5,31.5C 836.338,31.8417 836.672,32.5084 836.5,33.5C 837.986,39.6057 837.653,45.6057 835.5,51.5C 833.194,52.375 832.527,53.7084 833.5,55.5C 833.833,55.5 834.167,55.5 834.5,55.5C 834.973,56.9063 835.973,57.573 837.5,57.5C 837.973,58.9063 838.973,59.573 840.5,59.5C 840.833,60.5 841.5,61.1667 842.5,61.5C 842.738,63.4044 843.738,64.7377 845.5,65.5C 847.23,71.2799 847.897,77.2799 847.5,83.5C 846.069,84.7804 845.402,86.4471 845.5,88.5C 843.167,94.1667 839.167,98.1667 833.5,100.5C 819.296,102.39 804.963,103.056 790.5,102.5C 790.5,74.8333 790.5,47.1667 790.5,19.5C 799.833,19.5 809.167,19.5 818.5,19.5 Z M 820.5,37.5 C 821.75,40.006 822.416,42.6726 822.5,45.5C 821.662,45.8417 821.328,46.5084 821.5,47.5C 820.167,48.1667 819.167,49.1667 818.5,50.5C 814.154,50.6657 809.821,50.499 805.5,50C 805.619,45.7116 805.619,41.2116 805.5,36.5C 810.571,35.1358 815.571,35.4691 820.5,37.5 Z M 826.5,67.5 C 826.842,68.3382 827.508,68.6716 828.5,68.5C 831.115,72.0088 832.115,76.0088 831.5,80.5C 830.094,80.9731 829.427,81.9731 829.5,83.5C 828.833,83.5 828.5,83.8333 828.5,84.5C 826.847,84.6596 825.514,85.3263 824.5,86.5C 818.5,86.5 812.5,86.5 806.5,86.5C 806.737,85.209 806.404,84.209 805.5,83.5C 805.096,77.7104 805.596,72.0438 807,66.5C 813.437,66.3151 819.937,66.6484 826.5,67.5 Z"/></g>
<g><path style="opacity:0.008" fill="#161920" d="M 387.5,22.5 C 389.5,22.5 390.5,23.5 390.5,25.5C 389.167,24.8333 388.167,23.8333 387.5,22.5 Z"/></g>
<g><path style="opacity:0.027" fill="#1f242a" d="M 826.5,22.5 C 828.027,22.427 829.027,23.0937 829.5,24.5C 827.973,24.573 826.973,23.9063 826.5,22.5 Z"/></g>
<g><path style="opacity:0.078" fill="#2e333c" d="M 924.5,22.5 C 926.404,22.7376 927.738,23.7376 928.5,25.5C 926.596,25.2624 925.262,24.2624 924.5,22.5 Z"/></g>
<g><path style="opacity:0.898" fill="#61646b" d="M 98.5,20.5 C 98.8799,22.698 98.2132,24.3646 96.5,25.5C 96.4021,23.4471 97.0687,21.7804 98.5,20.5 Z"/></g>
<g><path style="opacity:0.216" fill="#262b34" d="M 223.5,22.5 C 225.027,22.427 226.027,23.0937 226.5,24.5C 224.973,24.573 223.973,23.9063 223.5,22.5 Z"/></g>
<g><path style="opacity:0.949" fill="#dee6eb" d="M 447.5,19.5 C 447.5,47.1667 447.5,74.8333 447.5,102.5C 446.502,75.3384 446.169,48.0051 446.5,20.5C 442.167,20.5 437.833,20.5 433.5,20.5C 433.83,37.0085 433.496,53.3419 432.5,69.5C 432.5,52.8333 432.5,36.1667 432.5,19.5C 437.5,19.5 442.5,19.5 447.5,19.5 Z"/></g>
<g><path style="opacity:0.384" fill="#25282e" d="M 598.5,19.5 C 598.833,19.5 599.167,19.5 599.5,19.5C 599.5,47.1667 599.5,74.8333 599.5,102.5C 616.5,102.5 633.5,102.5 650.5,102.5C 650.5,102.833 650.5,103.167 650.5,103.5C 633.167,103.5 615.833,103.5 598.5,103.5C 598.123,74.8018 598.123,46.8018 598.5,19.5 Z"/></g>
<g><path style="opacity:0.529" fill="#2b2f36" d="M 183.5,23.5 C 183.027,24.9063 182.027,25.573 180.5,25.5C 180.973,24.0937 181.973,23.427 183.5,23.5 Z"/></g>
<g><path style="opacity:0.055" fill="#282e36" d="M 226.5,24.5 C 228.027,24.427 229.027,25.0937 229.5,26.5C 227.973,26.573 226.973,25.9063 226.5,24.5 Z"/></g>
<g><path style="opacity:0.439" fill="#32363e" d="M 300.5,22.5 C 300.262,24.4044 299.262,25.7377 297.5,26.5C 297.738,24.5956 298.738,23.2623 300.5,22.5 Z"/></g>
<g><path style="opacity:0.192" fill="#1d2129" d="M 321.5,23.5 C 320.341,25.2503 318.674,26.2503 316.5,26.5C 317.659,24.7497 319.326,23.7497 321.5,23.5 Z"/></g>
<g><path style="opacity:0.816" fill="#5c6067" d="M 892.5,21.5 C 891.089,23.914 889.089,25.5806 886.5,26.5C 887.911,24.086 889.911,22.4194 892.5,21.5 Z"/></g>
<g><path style="opacity:0.522" fill="#34373e" d="M 278.5,24.5 C 275.833,27.1667 273.167,29.8333 270.5,32.5C 271.833,28.5 274.5,25.8333 278.5,24.5 Z"/></g>
<g><path style="opacity:1" fill="#f3f4f5" d="M 279.5,34.5 C 277.989,36.4758 277.156,38.8091 277,41.5C 276.214,51.2072 276.547,60.8739 278,70.5C 278.383,71.056 278.883,71.3893 279.5,71.5C 279.5,71.8333 279.5,72.1667 279.5,72.5C 279.171,75.2282 279.837,77.5615 281.5,79.5C 281.402,81.5529 282.069,83.2196 283.5,84.5C 283.402,86.5529 284.069,88.2196 285.5,89.5C 286.674,90.5137 287.34,91.847 287.5,93.5C 287.427,95.0269 288.094,96.0269 289.5,96.5C 290.338,96.8417 290.672,97.5084 290.5,98.5C 290.738,100.404 291.738,101.738 293.5,102.5C 293.427,104.027 294.094,105.027 295.5,105.5C 296.203,107.716 297.536,109.549 299.5,111C 298.552,111.483 297.552,111.649 296.5,111.5C 295.833,111.5 295.5,111.167 295.5,110.5C 293.118,107.452 290.452,104.785 287.5,102.5C 286.5,102.167 285.833,101.5 285.5,100.5C 285.573,98.9731 284.906,97.9731 283.5,97.5C 283.446,95.368 282.446,94.0347 280.5,93.5C 279.662,93.1583 279.328,92.4916 279.5,91.5C 279.573,89.9731 278.906,88.9731 277.5,88.5C 275.736,83.978 273.736,79.6446 271.5,75.5C 270.004,68.8474 268.504,62.1807 267,55.5C 266.249,49.1163 266.416,42.783 267.5,36.5C 268.401,35.7095 269.068,34.7095 269.5,33.5C 269.5,32.8333 269.833,32.5 270.5,32.5C 273.167,29.8333 275.833,27.1667 278.5,24.5C 280.017,24.4894 281.184,23.8228 282,22.5C 282.167,22.8333 282.333,23.1667 282.5,23.5C 280.478,26.8973 279.478,30.5639 279.5,34.5 Z"/></g>
<g><path style="opacity:0.263" fill="#2c323c" d="M 279.5,34.5 C 279.478,30.5639 280.478,26.8973 282.5,23.5C 282.333,23.1667 282.167,22.8333 282,22.5C 281.184,23.8228 280.017,24.4894 278.5,24.5C 279.884,21.8054 281.884,20.8054 284.5,21.5C 282.606,25.8653 280.939,30.1986 279.5,34.5 Z"/></g>
<g><path style="opacity:0.012" fill="#13161c" d="M 830.5,25.5 C 832.5,25.5 833.5,26.5 833.5,28.5C 832.167,27.8333 831.167,26.8333 830.5,25.5 Z"/></g>
<g><path style="opacity:0.627" fill="#303641" d="M 928.5,25.5 C 930.262,26.2623 931.262,27.5956 931.5,29.5C 929.738,28.7377 928.738,27.4044 928.5,25.5 Z"/></g>
<g><path style="opacity:0.765" fill="#4a4d55" d="M 886.5,26.5 C 886.262,28.4044 885.262,29.7377 883.5,30.5C 883.738,28.5956 884.738,27.2623 886.5,26.5 Z"/></g>
<g><path style="opacity:0.557" fill="#464d55" d="M 229.5,26.5 C 231.754,27.1237 233.421,28.457 234.5,30.5C 232.205,29.8645 230.539,28.5311 229.5,26.5 Z"/></g>
<g><path style="opacity:0.278" fill="#202328" d="M 297.5,26.5 C 297.573,28.0269 296.906,29.0269 295.5,29.5C 295.427,27.9731 296.094,26.9731 297.5,26.5 Z"/></g>
<g><path style="opacity:0.792" fill="#3b414a" d="M 392.5,27.5 C 398.227,32.2244 403.227,37.5578 407.5,43.5C 401.773,38.7756 396.773,33.4422 392.5,27.5 Z"/></g>
<g><path style="opacity:0.251" fill="#212328" d="M 712.5,25.5 C 711.624,29.5821 709.957,33.2488 707.5,36.5C 708.376,32.4179 710.043,28.7512 712.5,25.5 Z"/></g>
<g><path style="opacity:0.004" fill="#181b20" d="M 313.5,28.5 C 313.027,29.9063 312.027,30.573 310.5,30.5C 310.973,29.0937 311.973,28.427 313.5,28.5 Z"/></g>
<g><path style="opacity:0.037" fill="#0c0e11" d="M 789.5,19.5 C 789.169,47.3384 789.502,75.005 790.5,102.5C 804.963,103.056 819.296,102.39 833.5,100.5C 831.981,101.41 830.315,102.243 828.5,103C 815.171,103.5 801.837,103.667 788.5,103.5C 788.169,75.3284 788.502,47.3284 789.5,19.5 Z"/></g>
<g><path style="opacity:0.219" fill="#111419" d="M 448.5,19.5 C 448.167,19.5 447.833,19.5 447.5,19.5C 442.5,19.5 437.5,19.5 432.5,19.5C 432.5,36.1667 432.5,52.8333 432.5,69.5C 431.5,69.1667 430.833,68.5 430.5,67.5C 429.5,67.1667 428.833,66.5 428.5,65.5C 429.496,65.5858 430.329,65.2524 431,64.5C 431.167,63 431.333,61.5 431.5,60C 430.906,46.4785 430.906,32.6451 431.5,18.5C 437.291,17.8163 442.957,18.1496 448.5,19.5 Z"/></g>
<g><path style="opacity:0.353" fill="#29303c" d="M 833.5,28.5 C 834.906,28.9731 835.573,29.9731 835.5,31.5C 834.094,31.0269 833.427,30.0269 833.5,28.5 Z"/></g>
<g><path style="opacity:0.678" fill="#2b2f35" d="M 350.5,30.5 C 344.13,30.8396 337.796,31.5063 331.5,32.5C 337.645,29.6692 343.978,29.0025 350.5,30.5 Z"/></g>
<g><path style="opacity:1" fill="#eff0f1" d="M 350.5,30.5 C 351.08,32.7488 352.413,34.4154 354.5,35.5C 355.338,35.8417 355.672,36.5084 355.5,37.5C 355.427,39.0269 356.094,40.0269 357.5,40.5C 358.931,41.7804 359.598,43.4471 359.5,45.5C 359.5,46.5 359.5,47.5 359.5,48.5C 358.5,48.5 357.5,48.5 356.5,48.5C 348.005,42.3747 338.671,40.3747 328.5,42.5C 325.084,42.5275 322.084,43.5275 319.5,45.5C 316.246,45.7936 313.579,47.127 311.5,49.5C 310.391,49.5569 309.391,49.8902 308.5,50.5C 307.833,50.5 307.167,50.5 306.5,50.5C 308.49,47.5117 310.823,44.8451 313.5,42.5C 315.404,42.2624 316.738,41.2624 317.5,39.5C 318.71,39.0679 319.71,38.4013 320.5,37.5C 320.842,36.6618 321.508,36.3284 322.5,36.5C 324.819,36.0075 326.819,35.0075 328.5,33.5C 329.209,32.596 330.209,32.2627 331.5,32.5C 337.796,31.5063 344.13,30.8396 350.5,30.5 Z"/></g>
<g><path style="opacity:0.588" fill="#3a3e45" d="M 180.5,25.5 C 177.167,29.5 173.5,33.1667 169.5,36.5C 172.167,31.8333 175.833,28.1667 180.5,25.5 Z"/></g>
<g><path style="opacity:0.333" fill="#20252e" d="M 932.5,31.5 C 935.074,34.0175 934.408,35.6842 930.5,36.5C 931.942,35.1805 932.608,33.5138 932.5,31.5 Z"/></g>
<g><path style="opacity:0.016" fill="#1e2229" d="M 234.5,32.5 C 234.573,34.0269 233.906,35.0269 232.5,35.5C 232.427,33.9731 233.094,32.9731 234.5,32.5 Z"/></g>
<g><path style="opacity:0.114" fill="#1c1f24" d="M 328.5,33.5 C 326.819,35.0075 324.819,36.0075 322.5,36.5C 323.911,34.461 325.911,33.461 328.5,33.5 Z"/></g>
<g><path style="opacity:0.212" fill="#393f4a" d="M 724.5,28.5 C 725.912,30.6036 726.912,32.9369 727.5,35.5C 725.182,33.8148 724.182,31.4815 724.5,28.5 Z"/></g>
<g><path style="opacity:0.125" fill="#181a1e" d="M 269.5,33.5 C 269.068,34.7095 268.401,35.7095 267.5,36.5C 267.285,34.8212 267.952,33.8212 269.5,33.5 Z"/></g>
<g><path style="opacity:0.239" fill="#2b313a" d="M 350.5,30.5 C 352.587,31.5846 353.92,33.2512 354.5,35.5C 352.413,34.4154 351.08,32.7488 350.5,30.5 Z"/></g>
<g><path style="opacity:0.127" fill="#111317" d="M 805.5,34.5 C 809.182,34.3347 812.848,34.5014 816.5,35C 818.32,35.2004 819.653,36.0337 820.5,37.5C 815.571,35.4691 810.571,35.1358 805.5,36.5C 805.5,35.8333 805.5,35.1667 805.5,34.5 Z"/></g>
<g><path style="opacity:0.02" fill="#121419" d="M 912.5,34.5 C 907.449,34.0421 902.783,35.0421 898.5,37.5C 899.343,35.8267 900.676,34.66 902.5,34C 906.027,33.1925 909.36,33.3592 912.5,34.5 Z"/></g>
<g><path style="opacity:0.62" fill="#31353b" d="M 915.5,35.5 C 918.497,37.1782 921.164,39.1782 923.5,41.5C 923.217,42.2891 922.717,42.9558 922,43.5C 919.999,40.6693 917.833,38.0026 915.5,35.5 Z"/></g>
<g><path style="opacity:0.231" fill="#20252e" d="M 110.5,33.5 C 111.931,34.7804 112.598,36.4471 112.5,38.5C 111.069,37.2196 110.402,35.5529 110.5,33.5 Z"/></g>
<g><path style="opacity:0.059" fill="#1b1e23" d="M 217.5,37.5 C 213.198,36.3937 208.864,35.3937 204.5,34.5C 200.438,35.2874 196.438,36.2874 192.5,37.5C 193.058,36.2101 194.058,35.3768 195.5,35C 203.311,32.5897 210.644,33.423 217.5,37.5 Z"/></g>
<g><path style="opacity:0.063" fill="#23272f" d="M 231.5,36.5 C 231.573,38.0269 230.906,39.0269 229.5,39.5C 229.427,37.9731 230.094,36.9731 231.5,36.5 Z"/></g>
<g><path style="opacity:0.071" fill="#121418" d="M 320.5,37.5 C 319.71,38.4013 318.71,39.0679 317.5,39.5C 317.821,37.9519 318.821,37.2852 320.5,37.5 Z"/></g>
<g><path style="opacity:0.598" fill="#505864" d="M 805.5,34.5 C 805.5,35.1667 805.5,35.8333 805.5,36.5C 805.619,41.2116 805.619,45.7116 805.5,50C 809.821,50.499 814.154,50.6657 818.5,50.5C 816.366,52.0334 813.866,52.7001 811,52.5C 808.906,52.4644 806.906,52.1311 805,51.5C 804.182,45.6513 804.348,39.9846 805.5,34.5 Z"/></g>
<g><path style="opacity:0.016" fill="#17191c" d="M 90.5,37.5 C 90.5979,39.5529 89.9313,41.2196 88.5,42.5C 88.1201,40.302 88.7868,38.6354 90.5,37.5 Z"/></g>
<g><path style="opacity:0.243" fill="#1a1d21" d="M 169.5,36.5 C 169.573,38.0269 168.906,39.0269 167.5,39.5C 167.427,37.9731 168.094,36.9731 169.5,36.5 Z"/></g>
<g><path style="opacity:0.008" fill="#0d1115" d="M 192.5,37.5 C 192.027,38.9063 191.027,39.573 189.5,39.5C 189.973,38.0937 190.973,37.427 192.5,37.5 Z"/></g>
<g><path style="opacity:0.369" fill="#2d3138" d="M 217.5,37.5 C 219.027,37.427 220.027,38.0937 220.5,39.5C 218.973,39.573 217.973,38.9063 217.5,37.5 Z"/></g>
<g><path style="opacity:0.204" fill="#1e2025" d="M 292.5,35.5 C 292.598,37.5529 291.931,39.2196 290.5,40.5C 290.402,38.4471 291.069,36.7804 292.5,35.5 Z"/></g>
<g><path style="opacity:0.031" fill="#111418" d="M 929.5,37.5 C 929.027,38.9063 928.027,39.573 926.5,39.5C 926.973,38.0937 927.973,37.427 929.5,37.5 Z"/></g>
<g><path style="opacity:0.714" fill="#373b41" d="M 220.5,39.5 C 222.754,40.4151 224.754,41.7484 226.5,43.5C 226.103,44.525 225.437,44.6917 224.5,44C 222.959,42.6288 221.625,41.1288 220.5,39.5 Z"/></g>
<g><path style="opacity:0.333" fill="#2b313c" d="M 355.5,37.5 C 356.906,37.9731 357.573,38.9731 357.5,40.5C 356.094,40.0269 355.427,39.0269 355.5,37.5 Z"/></g>
<g><path style="opacity:0.008" fill="#1f2329" d="M 301.5,39.5 C 301.573,41.0269 300.906,42.0269 299.5,42.5C 299.427,40.9731 300.094,39.9731 301.5,39.5 Z"/></g>
<g><path style="opacity:0.627" fill="#4b4e56" d="M 317.5,39.5 C 316.738,41.2624 315.404,42.2624 313.5,42.5C 314.262,40.7376 315.596,39.7376 317.5,39.5 Z"/></g>
<g><path style="opacity:0.312" fill="#1f242d" d="M 836.5,33.5 C 838.047,35.8066 838.713,38.4733 838.5,41.5C 838.333,43.5 838.167,45.5 838,47.5C 837.8,49.3197 836.966,50.653 835.5,51.5C 837.653,45.6057 837.986,39.6057 836.5,33.5 Z"/></g>
<g><path style="opacity:0.016" fill="#15171c" d="M 926.5,39.5 C 926.027,40.9063 925.027,41.573 923.5,41.5C 923.973,40.0937 924.973,39.427 926.5,39.5 Z"/></g>
<g><path style="opacity:0.051" fill="#252a32" d="M 228.5,40.5 C 228.573,42.0269 227.906,43.0269 226.5,43.5C 226.427,41.9731 227.094,40.9731 228.5,40.5 Z"/></g>
<g><path style="opacity:0.11" fill="#181d24" d="M 898.5,37.5 C 897.781,39.7638 897.448,42.0971 897.5,44.5C 896.853,43.7261 896.52,42.7261 896.5,41.5C 896.34,39.6455 897.007,38.3121 898.5,37.5 Z"/></g>
<g><path style="opacity:0.008" fill="#1a1d22" d="M 189.5,39.5 C 187.833,41.8333 185.833,43.8333 183.5,45.5C 184.5,42.5 186.5,40.5 189.5,39.5 Z"/></g>
<g><path style="opacity:0.388" fill="#3c4047" d="M 820.5,37.5 C 823.517,39.6154 824.184,42.282 822.5,45.5C 822.416,42.6726 821.75,40.006 820.5,37.5 Z"/></g>
<g><path style="opacity:0.169" fill="#2a2e34" d="M 328.5,42.5 C 338.671,40.3747 348.005,42.3747 356.5,48.5C 348.977,44.6602 340.977,42.6602 332.5,42.5C 331.167,42.5 329.833,42.5 328.5,42.5 Z"/></g>
<g><path style="opacity:0.008" fill="#1d2128" d="M 407.5,43.5 C 408.833,43.5 409.5,44.1667 409.5,45.5C 408.5,45.1667 407.833,44.5 407.5,43.5 Z"/></g>
<g><path style="opacity:0.831" fill="#5d6066" d="M 705.5,40.5 C 705.88,42.698 705.213,44.3646 703.5,45.5C 703.796,43.597 704.463,41.9303 705.5,40.5 Z"/></g>
<g><path style="opacity:0.878" fill="#565a61" d="M 166.5,41.5 C 165.744,45.767 164.411,49.767 162.5,53.5C 162.861,49.0845 164.194,45.0845 166.5,41.5 Z"/></g>
<g><path style="opacity:0.129" fill="#181c22" d="M 299.5,42.5 C 299.573,44.0269 298.906,45.0269 297.5,45.5C 297.427,43.9731 298.094,42.9731 299.5,42.5 Z"/></g>
<g><path style="opacity:0.114" fill="#25282c" d="M 313.5,42.5 C 310.823,44.8451 308.49,47.5117 306.5,50.5C 305.833,50.8333 305.167,51.1667 304.5,51.5C 305.948,46.9296 308.948,43.9296 313.5,42.5 Z"/></g>
<g><path style="opacity:0.149" fill="#181c21" d="M 328.5,42.5 C 329.833,42.5 331.167,42.5 332.5,42.5C 328.263,43.4009 323.93,44.4009 319.5,45.5C 322.084,43.5275 325.084,42.5275 328.5,42.5 Z"/></g>
<g><path style="opacity:0.247" fill="#22262d" d="M 319.5,45.5 C 317.151,47.341 314.485,48.6743 311.5,49.5C 313.579,47.127 316.246,45.7936 319.5,45.5 Z"/></g>
<g><path style="opacity:0.008" fill="#12161a" d="M 183.5,45.5 C 183.573,47.0269 182.906,48.0269 181.5,48.5C 181.427,46.9731 182.094,45.9731 183.5,45.5 Z"/></g>
<g><path style="opacity:0.176" fill="#1c2129" d="M 729.5,39.5 C 731.957,42.7512 733.624,46.4179 734.5,50.5C 732.043,47.2488 730.376,43.5821 729.5,39.5 Z"/></g>
<g><path style="opacity:0.627" fill="#5a5e65" d="M 818.5,19.5 C 809.167,19.5 799.833,19.5 790.5,19.5C 790.5,47.1667 790.5,74.8333 790.5,102.5C 789.502,75.005 789.169,47.3384 789.5,19.5C 799.167,18.1667 808.833,18.1667 818.5,19.5 Z"/></g>
<g><path style="opacity:0.02" fill="#23262a" d="M 882.5,32.5 C 880.906,39.2866 881.239,45.9533 883.5,52.5C 882.21,51.9423 881.377,50.9423 881,49.5C 878.748,43.4688 879.248,37.8022 882.5,32.5 Z"/></g>
<g><path style="opacity:0.082" fill="#1d2026" d="M 897.5,44.5 C 899.389,45.604 901.055,46.9373 902.5,48.5C 899.796,48.3304 898.129,46.9971 897.5,44.5 Z"/></g>
<g><path style="opacity:0.251" fill="#282e37" d="M 297.5,45.5 C 296.341,49.1513 294.674,52.4846 292.5,55.5C 293.127,51.5799 294.793,48.2466 297.5,45.5 Z"/></g>
<g><path style="opacity:0.361" fill="#393f4a" d="M 359.5,45.5 C 360.931,46.7804 361.598,48.4471 361.5,50.5C 359.447,50.5979 357.78,49.9313 356.5,48.5C 357.5,48.5 358.5,48.5 359.5,48.5C 359.5,47.5 359.5,46.5 359.5,45.5 Z"/></g>
<g><path style="opacity:0.706" fill="#51545b" d="M 821.5,47.5 C 821.5,49.5 820.5,50.5 818.5,50.5C 819.167,49.1667 820.167,48.1667 821.5,47.5 Z"/></g>
<g><path style="opacity:0.498" fill="#3b3e44" d="M 289.5,43.5 C 289.706,46.4951 289.04,49.1617 287.5,51.5C 287.294,48.5049 287.96,45.8383 289.5,43.5 Z"/></g>
<g><path style="opacity:0.024" fill="#1a1d22" d="M 311.5,49.5 C 311.027,50.9063 310.027,51.573 308.5,51.5C 308.5,51.1667 308.5,50.8333 308.5,50.5C 309.391,49.8902 310.391,49.5569 311.5,49.5 Z"/></g>
<g><path style="opacity:0.8" fill="#40454e" d="M 413.5,49.5 C 419.227,54.2244 424.227,59.5578 428.5,65.5C 422.773,60.7756 417.773,55.4422 413.5,49.5 Z"/></g>
<g><path style="opacity:0.882" fill="#696c71" d="M 86.5,46.5 C 86.8337,49.491 85.8337,51.8243 83.5,53.5C 83.7073,50.7594 84.7073,48.4261 86.5,46.5 Z"/></g>
<g><path style="opacity:0.843" fill="#4e545d" d="M 117.5,48.5 C 119.065,50.5093 120.065,52.8427 120.5,55.5C 118.166,53.8243 117.166,51.491 117.5,48.5 Z"/></g>
<g><path style="opacity:0.745" fill="#5a606a" d="M 337.5,51.5 C 337.5,51.8333 337.5,52.1667 337.5,52.5C 334.833,52.5 332.167,52.5 329.5,52.5C 329.5,52.1667 329.5,51.8333 329.5,51.5C 332.061,50.2329 334.728,50.2329 337.5,51.5 Z"/></g>
<g><path style="opacity:0.396" fill="#363c45" d="M 337.5,52.5 C 337.5,52.1667 337.5,51.8333 337.5,51.5C 340.216,51.6785 342.883,52.1785 345.5,53C 347.32,53.2004 348.653,54.0337 349.5,55.5C 345.584,54.1876 341.584,53.1876 337.5,52.5 Z"/></g>
<g><path style="opacity:0.773" fill="#7d8088" d="M 716.5,51.5 C 717.209,50.596 718.209,50.2627 719.5,50.5C 719.5,51.8333 719.5,53.1667 719.5,54.5C 718.662,54.1583 718.328,53.4916 718.5,52.5C 718.158,51.6618 717.492,51.3284 716.5,51.5 Z"/></g>
<g><path style="opacity:0.29" fill="#252930" d="M 902.5,48.5 C 910.128,50.6993 917.128,54.0326 923.5,58.5C 916.043,55.915 909.043,52.5817 902.5,48.5 Z"/></g>
<g><path style="opacity:0.176" fill="#181a1e" d="M 304.5,51.5 C 303.974,53.2303 302.974,54.5637 301.5,55.5C 301.088,53.0274 302.088,51.6941 304.5,51.5 Z"/></g>
<g><path style="opacity:0.996" fill="#9fa4aa" d="M 306.5,50.5 C 307.167,50.5 307.833,50.5 308.5,50.5C 308.5,50.8333 308.5,51.1667 308.5,51.5C 306.833,53.8333 304.833,55.8333 302.5,57.5C 301.662,57.1583 301.328,56.4916 301.5,55.5C 302.974,54.5637 303.974,53.2303 304.5,51.5C 305.167,51.1667 305.833,50.8333 306.5,50.5 Z"/></g>
<g><path style="opacity:1" fill="#eff0f2" d="M 329.5,52.5 C 332.167,52.5 334.833,52.5 337.5,52.5C 341.584,53.1876 345.584,54.1876 349.5,55.5C 351.153,55.6596 352.486,56.3263 353.5,57.5C 354.585,59.5869 356.251,60.9202 358.5,61.5C 359.08,63.7488 360.413,65.4154 362.5,66.5C 362.678,67.6948 363.011,68.8615 363.5,70C 362.263,75.2081 360.929,80.3748 359.5,85.5C 358.883,85.6107 358.383,85.944 358,86.5C 357.667,83.5 357.333,80.5 357,77.5C 356.392,75.9336 355.558,74.6002 354.5,73.5C 353.662,73.1583 353.328,72.4916 353.5,71.5C 353.573,69.9731 352.906,68.9731 351.5,68.5C 351.573,66.9731 350.906,65.9731 349.5,65.5C 348.167,64.8333 347.167,63.8333 346.5,62.5C 346.027,61.0937 345.027,60.427 343.5,60.5C 341.421,58.127 338.754,56.7936 335.5,56.5C 332.196,54.5829 328.529,53.4162 324.5,53C 326.134,52.5065 327.801,52.3398 329.5,52.5 Z"/></g>
<g><path style="opacity:0.012" fill="#1d2229" d="M 835.5,51.5 C 835.267,53.0618 834.6,54.3951 833.5,55.5C 832.527,53.7084 833.194,52.375 835.5,51.5 Z"/></g>
<g><path style="opacity:0.341" fill="#272c34" d="M 102.5,52.5 C 101.272,53.3065 100.272,54.3065 99.5,55.5C 99.183,52.4655 100.183,51.4655 102.5,52.5 Z"/></g>
<g><path style="opacity:0.541" fill="#373c45" d="M 329.5,51.5 C 329.5,51.8333 329.5,52.1667 329.5,52.5C 327.801,52.3398 326.134,52.5065 324.5,53C 328.529,53.4162 332.196,54.5829 335.5,56.5C 332.001,55.9003 328.501,55.2337 325,54.5C 322.069,56.4727 321.069,55.8061 322,52.5C 324.152,50.6763 326.652,50.343 329.5,51.5 Z"/></g>
<g><path style="opacity:0.592" fill="#3f4247" d="M 883.5,52.5 C 886.118,54.4517 888.452,56.785 890.5,59.5C 887.189,58.1886 884.855,55.8553 883.5,52.5 Z"/></g>
<g><path style="opacity:0.621" fill="#5a6371" d="M 279.5,34.5 C 276.833,46.8333 276.833,59.1667 279.5,71.5C 278.883,71.3893 278.383,71.056 278,70.5C 276.547,60.8739 276.214,51.2072 277,41.5C 277.156,38.8091 277.989,36.4758 279.5,34.5 Z"/></g>
<g><path style="opacity:0.212" fill="#25272c" d="M 701.5,49.5 C 700.958,52.9122 699.625,55.9122 697.5,58.5C 698.042,55.0878 699.375,52.0878 701.5,49.5 Z"/></g>
<g><path style="opacity:0.251" fill="#242a33" d="M 834.5,55.5 C 836.027,55.427 837.027,56.0937 837.5,57.5C 835.973,57.573 834.973,56.9063 834.5,55.5 Z"/></g>
<g><path style="opacity:0.008" fill="#24282e" d="M 353.5,57.5 C 355.749,58.0798 357.415,59.4131 358.5,61.5C 356.251,60.9202 354.585,59.5869 353.5,57.5 Z"/></g>
<g><path style="opacity:0.012" fill="#2e3135" d="M 399.5,56.5 C 403.898,59.8947 407.564,63.8947 410.5,68.5C 406.102,65.1053 402.436,61.1053 399.5,56.5 Z"/></g>
<g><path style="opacity:0.075" fill="#2c3138" d="M 837.5,57.5 C 839.027,57.427 840.027,58.0937 840.5,59.5C 838.973,59.573 837.973,58.9063 837.5,57.5 Z"/></g>
<g><path style="opacity:0.51" fill="#2c323d" d="M 301.5,55.5 C 301.328,56.4916 301.662,57.1583 302.5,57.5C 301.969,59.5441 300.802,61.2107 299,62.5C 298.167,59.522 299,57.1887 301.5,55.5 Z"/></g>
<g><path style="opacity:0.173" fill="#1f2125" d="M 335.5,56.5 C 338.754,56.7936 341.421,58.127 343.5,60.5C 340.515,59.6743 337.849,58.341 335.5,56.5 Z"/></g>
<g><path style="opacity:0.396" fill="#272c35" d="M 716.5,51.5 C 717.492,51.3284 718.158,51.6618 718.5,52.5C 714.736,59.8627 711.069,67.3627 707.5,75C 708.056,75.3826 708.389,75.8826 708.5,76.5C 707.508,76.6716 706.842,76.3382 706.5,75.5C 709.833,67.5 713.167,59.5 716.5,51.5 Z"/></g>
<g><path style="opacity:0.004" fill="#0f1217" d="M 840.5,59.5 C 841.833,59.5 842.5,60.1667 842.5,61.5C 841.5,61.1667 840.833,60.5 840.5,59.5 Z"/></g>
<g><path style="opacity:0.929" fill="#5f666f" d="M 923.5,58.5 C 925.23,59.0256 926.564,60.0256 927.5,61.5C 925.368,61.4456 924.035,60.4456 923.5,58.5 Z"/></g>
<g><path style="opacity:0.341" fill="#2c323c" d="M 181.5,48.5 C 178.735,55.3159 178.069,62.3159 179.5,69.5C 178.732,68.7375 178.232,67.7375 178,66.5C 177.333,62.8333 177.333,59.1667 178,55.5C 178.522,52.7187 179.689,50.3854 181.5,48.5 Z"/></g>
<g><path style="opacity:0.11" fill="#23262a" d="M 719.5,54.5 C 722.684,60.2065 725.35,66.2065 727.5,72.5C 723.767,67.0295 721.101,61.0295 719.5,54.5 Z"/></g>
<g><path style="opacity:0.2" fill="#202228" d="M 890.5,59.5 C 892.674,59.7497 894.341,60.7497 895.5,62.5C 893.326,62.2503 891.659,61.2503 890.5,59.5 Z"/></g>
<g><path style="opacity:0.03" fill="#0a0d10" d="M 261.5,60.5 C 260.732,59.7375 260.232,58.7375 260,57.5C 259.502,60.8168 259.335,64.1501 259.5,67.5C 258.518,64.0381 258.185,60.3714 258.5,56.5C 259.5,56.5 260.5,56.5 261.5,56.5C 261.5,57.8333 261.5,59.1667 261.5,60.5 Z"/></g>
<g><path style="opacity:0.494" fill="#3e4148" d="M 343.5,60.5 C 345.027,60.427 346.027,61.0937 346.5,62.5C 344.973,62.573 343.973,61.9063 343.5,60.5 Z"/></g>
<g><path style="opacity:0.004" fill="#1d2027" d="M 927.5,61.5 C 929.5,61.5 930.5,62.5 930.5,64.5C 929.167,63.8333 928.167,62.8333 927.5,61.5 Z"/></g>
<g><path style="opacity:0.361" fill="#323944" d="M 97.5,59.5 C 97.2927,62.2406 96.2927,64.5739 94.5,66.5C 94.7073,63.7594 95.7073,61.4261 97.5,59.5 Z"/></g>
<g><path style="opacity:0.38" fill="#2f3239" d="M 103.5,55.5 C 105.957,58.7512 107.624,62.4179 108.5,66.5C 106.043,63.2488 104.376,59.5821 103.5,55.5 Z"/></g>
<g><path style="opacity:0.235" fill="#21262e" d="M 122.5,59.5 C 123.931,60.7804 124.598,62.4471 124.5,64.5C 123.069,63.2196 122.402,61.5529 122.5,59.5 Z"/></g>
<g><path style="opacity:0.769" fill="#757b86" d="M 261.5,60.5 C 262.341,62.3792 262.675,64.3792 262.5,66.5C 261.71,65.3915 261.21,64.0581 261,62.5C 260.503,64.8098 260.337,67.1432 260.5,69.5C 260.167,69.5 259.833,69.5 259.5,69.5C 259.5,68.8333 259.5,68.1667 259.5,67.5C 259.335,64.1501 259.502,60.8168 260,57.5C 260.232,58.7375 260.732,59.7375 261.5,60.5 Z"/></g>
<g><path style="opacity:0.459" fill="#3e424a" d="M 267.5,36.5 C 266.416,42.783 266.249,49.1163 267,55.5C 268.504,62.1807 270.004,68.8474 271.5,75.5C 266.136,63.4778 264.302,50.8111 266,37.5C 266.383,36.944 266.883,36.6107 267.5,36.5 Z"/></g>
<g><path style="opacity:0.678" fill="#3b4049" d="M 358.5,61.5 C 360.587,62.5846 361.92,64.2512 362.5,66.5C 360.413,65.4154 359.08,63.7488 358.5,61.5 Z"/></g>
<g><path style="opacity:0.561" fill="#3b414b" d="M 842.5,61.5 C 844.262,62.2623 845.262,63.5956 845.5,65.5C 843.738,64.7377 842.738,63.4044 842.5,61.5 Z"/></g>
<g><path style="opacity:0.831" fill="#4d4f55" d="M 897.5,63.5 C 899.698,63.1201 901.365,63.7868 902.5,65.5C 900.447,65.5979 898.78,64.9313 897.5,63.5 Z"/></g>
<g><path style="opacity:0.409" fill="#353c49" d="M 447.5,19.5 C 447.833,19.5 448.167,19.5 448.5,19.5C 448.5,47.8333 448.5,76.1667 448.5,104.5C 446.219,104.923 444.552,104.256 443.5,102.5C 444.961,103.686 446.295,103.686 447.5,102.5C 447.5,74.8333 447.5,47.1667 447.5,19.5 Z"/></g>
<g><path style="opacity:0.004" fill="#181b21" d="M 930.5,64.5 C 931.833,64.5 932.5,65.1667 932.5,66.5C 931.5,66.1667 930.833,65.5 930.5,64.5 Z"/></g>
<g><path style="opacity:1" fill="#fafafb" d="M 329.5,65.5 C 332.256,67.2038 335.256,68.5371 338.5,69.5C 341.195,72.5256 343.862,75.5256 346.5,78.5C 347.338,78.8417 347.672,79.5084 347.5,80.5C 349.236,88.4044 348.569,96.0711 345.5,103.5C 344.094,103.973 343.427,104.973 343.5,106.5C 342.833,107.833 341.833,108.833 340.5,109.5C 338.973,109.427 337.973,110.094 337.5,111.5C 335.181,111.992 333.181,112.992 331.5,114.5C 330.167,114.5 328.833,114.5 327.5,114.5C 322.797,114.563 318.13,114.229 313.5,113.5C 312.508,113.672 311.842,113.338 311.5,112.5C 311.027,111.094 310.027,110.427 308.5,110.5C 306.785,108.118 304.785,106.118 302.5,104.5C 301.662,104.158 301.328,103.492 301.5,102.5C 301.34,100.847 300.674,99.5137 299.5,98.5C 299.768,96.901 299.434,95.5676 298.5,94.5C 298.294,89.3457 298.961,84.3457 300.5,79.5C 300.328,78.5084 300.662,77.8417 301.5,77.5C 304.833,74.8333 307.833,71.8333 310.5,68.5C 310.842,67.6618 311.508,67.3284 312.5,67.5C 318.031,65.8754 323.697,65.2087 329.5,65.5 Z"/></g>
<g><path style="opacity:0.933" fill="#e0e4e8" d="M 381.5,18.5 C 381.5,46.1667 381.5,73.8333 381.5,101.5C 385.833,101.5 390.167,101.5 394.5,101.5C 394.5,85.1667 394.5,68.8333 394.5,52.5C 395.791,52.2627 396.791,52.596 397.5,53.5C 395.515,69.4658 394.848,85.7991 395.5,102.5C 390.5,102.5 385.5,102.5 380.5,102.5C 380.169,74.3284 380.502,46.3284 381.5,18.5 Z"/></g>
<g><path style="opacity:0.311" fill="#343942" d="M 826.5,67.5 C 819.937,66.6484 813.437,66.3151 807,66.5C 805.596,72.0438 805.096,77.7104 805.5,83.5C 805.5,84.8333 805.5,86.1667 805.5,87.5C 804.508,80.3524 804.175,73.0191 804.5,65.5C 811.175,65.3337 817.842,65.5004 824.5,66C 825.416,66.2784 826.082,66.7784 826.5,67.5 Z"/></g>
<g><path style="opacity:0.569" fill="#2f333a" d="M 329.5,65.5 C 323.697,65.2087 318.031,65.8754 312.5,67.5C 313.681,65.9328 315.347,65.0995 317.5,65C 321.689,64.1881 325.689,64.3547 329.5,65.5 Z"/></g>
<g><path style="opacity:0.078" fill="#2d2f34" d="M 349.5,65.5 C 350.906,65.9731 351.573,66.9731 351.5,68.5C 350.094,68.0269 349.427,67.0269 349.5,65.5 Z"/></g>
<g><path style="opacity:0.227" fill="#262a30" d="M 329.5,65.5 C 333.165,65.5018 336.165,66.8352 338.5,69.5C 335.256,68.5371 332.256,67.2038 329.5,65.5 Z"/></g>
<g><path style="opacity:0.227" fill="#22252a" d="M 904.5,66.5 C 907.754,66.7936 910.421,68.127 912.5,70.5C 909.515,69.6743 906.849,68.341 904.5,66.5 Z"/></g>
<g><path style="opacity:0.176" fill="#101419" d="M 29.5,19.5 C 30.498,47.3284 30.8313,75.3284 30.5,103.5C 24.675,104.404 19.0083,104.071 13.5,102.5C 13.8333,102.5 14.1667,102.5 14.5,102.5C 19.5,102.5 24.5,102.5 29.5,102.5C 29.5,74.8333 29.5,47.1667 29.5,19.5 Z"/></g>
<g><path style="opacity:0.118" fill="#191b1e" d="M 79.5,61.5 C 78.9579,64.9122 77.6246,67.9122 75.5,70.5C 76.0421,67.0878 77.3754,64.0878 79.5,61.5 Z"/></g>
<g><path style="opacity:0.753" fill="#4e5157" d="M 410.5,68.5 C 412.5,68.5 413.5,69.5 413.5,71.5C 412.167,70.8333 411.167,69.8333 410.5,68.5 Z"/></g>
<g><path style="opacity:0.302" fill="#242932" d="M 932.5,66.5 C 933.906,66.9731 934.573,67.9731 934.5,69.5C 933.094,69.0269 932.427,68.0269 932.5,66.5 Z"/></g>
<g><path style="opacity:0.408" fill="#31353b" d="M 29.5,19.5 C 24.3054,19.1795 19.3054,19.5128 14.5,20.5C 14.5,47.5 14.5,74.5 14.5,101.5C 14.5,101.833 14.5,102.167 14.5,102.5C 14.1667,102.5 13.8333,102.5 13.5,102.5C 13.5,74.5 13.5,46.5 13.5,18.5C 19.0262,18.1786 24.3595,18.5119 29.5,19.5 Z"/></g>
<g><path style="opacity:0.008" fill="#202429" d="M 338.5,69.5 C 342.565,71.2329 345.232,74.2329 346.5,78.5C 343.862,75.5256 341.195,72.5256 338.5,69.5 Z"/></g>
<g><path style="opacity:0.051" fill="#222428" d="M 351.5,68.5 C 352.906,68.9731 353.573,69.9731 353.5,71.5C 352.094,71.0269 351.427,70.0269 351.5,68.5 Z"/></g>
<g><path style="opacity:0.847" fill="#616469" d="M 693.5,66.5 C 693.88,68.698 693.213,70.3646 691.5,71.5C 691.796,69.597 692.463,67.9303 693.5,66.5 Z"/></g>
<g><path style="opacity:0.329" fill="#33363c" d="M 162.5,53.5 C 161.587,66.7502 164.92,78.7502 172.5,89.5C 171.206,88.7101 170.039,87.7101 169,86.5C 163.537,76.786 160.703,66.6193 160.5,56C 161.066,55.0053 161.733,54.172 162.5,53.5 Z"/></g>
<g><path style="opacity:0.796" fill="#54575e" d="M 310.5,68.5 C 307.833,71.8333 304.833,74.8333 301.5,77.5C 303.5,73.5 306.5,70.5 310.5,68.5 Z"/></g>
<g><path style="opacity:0.784" fill="#555961" d="M 413.5,71.5 C 414.833,71.5 415.5,72.1667 415.5,73.5C 414.5,73.1667 413.833,72.5 413.5,71.5 Z"/></g>
<g><path style="opacity:0.165" fill="#131518" d="M 912.5,70.5 C 914.027,70.427 915.027,71.0937 915.5,72.5C 913.973,72.573 912.973,71.9063 912.5,70.5 Z"/></g>
<g><path style="opacity:0.212" fill="#20242b" d="M 179.5,69.5 C 181.008,71.1815 182.008,73.1815 182.5,75.5C 180.461,74.089 179.461,72.089 179.5,69.5 Z"/></g>
<g><path style="opacity:0.184" fill="#1d2128" d="M 741.5,65.5 C 743.957,68.7512 745.624,72.4179 746.5,76.5C 744.043,73.2488 742.376,69.5821 741.5,65.5 Z"/></g>
<g><path style="opacity:0.325" fill="#3d3f44" d="M 828.5,68.5 C 830.888,69.2187 832.388,70.8854 833,73.5C 833.826,76.2116 833.326,78.5449 831.5,80.5C 832.115,76.0088 831.115,72.0088 828.5,68.5 Z"/></g>
<g><path style="opacity:0.541" fill="#313338" d="M 915.5,72.5 C 917.027,72.427 918.027,73.0937 918.5,74.5C 916.973,74.573 915.973,73.9063 915.5,72.5 Z"/></g>
<g><path style="opacity:0.999" fill="#c7cacd" d="M 262.5,66.5 C 263.434,67.5676 263.768,68.901 263.5,70.5C 263.528,73.9164 264.528,76.9164 266.5,79.5C 268.674,82.5154 270.341,85.8487 271.5,89.5C 271.427,91.0269 272.094,92.0269 273.5,92.5C 274.338,92.8417 274.672,93.5084 274.5,94.5C 274.427,96.0269 275.094,97.0269 276.5,97.5C 276.631,98.2389 276.464,98.9056 276,99.5C 274.296,97.6266 272.463,95.9599 270.5,94.5C 269.833,94.5 269.5,94.1667 269.5,93.5C 269.573,91.9731 268.906,90.9731 267.5,90.5C 267.573,88.9731 266.906,87.9731 265.5,87.5C 264.662,87.1583 264.328,86.4916 264.5,85.5C 262.857,80.2623 261.524,74.929 260.5,69.5C 260.337,67.1432 260.503,64.8098 261,62.5C 261.21,64.0581 261.71,65.3915 262.5,66.5 Z"/></g>
<g><path style="opacity:0.675" fill="#414650" d="M 263.5,70.5 C 265.072,73.2154 266.072,76.2154 266.5,79.5C 264.528,76.9164 263.528,73.9164 263.5,70.5 Z"/></g>
<g><path style="opacity:0.298" fill="#2a2f38" d="M 362.5,66.5 C 363.117,66.6107 363.617,66.944 364,67.5C 364.427,74.0398 362.927,80.0398 359.5,85.5C 360.929,80.3748 362.263,75.2081 363.5,70C 363.011,68.8615 362.678,67.6948 362.5,66.5 Z"/></g>
<g><path style="opacity:0.957" fill="#7a7c81" d="M 691.5,71.5 C 691.843,73.4832 691.176,74.8166 689.5,75.5C 689.66,73.847 690.326,72.5137 691.5,71.5 Z"/></g>
<g><path style="opacity:0.014" fill="#151719" d="M 94.5,66.5 C 94.0761,69.354 93.0761,72.0207 91.5,74.5C 98.1667,75.8333 104.833,75.8333 111.5,74.5C 109.506,72.1843 108.506,69.5176 108.5,66.5C 110.341,68.8485 111.674,71.5152 112.5,74.5C 109.232,75.8222 105.565,76.4888 101.5,76.5C 97.6508,76.4987 93.9841,76.1654 90.5,75.5C 91.0421,72.0878 92.3754,69.0878 94.5,66.5 Z"/></g>
<g><path style="opacity:0.439" fill="#2c313a" d="M 845.5,65.5 C 846.558,66.6002 847.392,67.9336 848,69.5C 848.226,72.095 848.726,74.595 849.5,77C 848.883,79.277 848.216,81.4437 847.5,83.5C 847.897,77.2799 847.23,71.2799 845.5,65.5 Z"/></g>
<g><path style="opacity:0.55" fill="#5a6069" d="M 112.5,74.5 C 113.404,75.209 113.737,76.209 113.5,77.5C 105.472,77.831 97.4723,77.4977 89.5,76.5C 89.6236,75.8933 89.9569,75.56 90.5,75.5C 93.9841,76.1654 97.6508,76.4987 101.5,76.5C 105.565,76.4888 109.232,75.8222 112.5,74.5 Z"/></g>
<g><path style="opacity:0.741" fill="#484e59" d="M 279.5,72.5 C 280.612,74.5994 281.279,76.9327 281.5,79.5C 279.837,77.5615 279.171,75.2282 279.5,72.5 Z"/></g>
<g><path style="opacity:0.552" fill="#575d66" d="M 728.5,74.5 C 729.404,75.209 729.737,76.209 729.5,77.5C 721.472,77.831 713.472,77.4977 705.5,76.5C 705.624,75.8933 705.957,75.56 706.5,75.5C 706.842,76.3382 707.508,76.6716 708.5,76.5C 714.176,76.6661 719.843,76.4994 725.5,76C 726.737,75.7679 727.737,75.2679 728.5,74.5 Z"/></g>
<g><path style="opacity:0.871" fill="#626469" d="M 74.5,72.5 C 74.8337,75.491 73.8337,77.8243 71.5,79.5C 71.9348,76.8427 72.9348,74.5093 74.5,72.5 Z"/></g>
<g><path style="opacity:0.404" fill="#2a2f37" d="M 182.5,75.5 C 183.906,75.9731 184.573,76.9731 184.5,78.5C 183.094,78.0269 182.427,77.0269 182.5,75.5 Z"/></g>
<g><path style="opacity:0.506" fill="#393e46" d="M 287.5,51.5 C 287.334,59.84 287.5,68.1733 288,76.5C 288.338,71.4535 289.005,66.4535 290,61.5C 290.24,59.1484 291.073,57.1484 292.5,55.5C 289.762,63.8574 289.095,72.3574 290.5,81C 290.387,82.2798 289.72,83.1131 288.5,83.5C 285.11,72.7834 284.776,62.1168 287.5,51.5 Z"/></g>
<g><path style="opacity:0.408" fill="#323439" d="M 889.5,78.5 C 887.5,79.5 885.5,80.5 883.5,81.5C 884.804,78.4306 886.804,77.4306 889.5,78.5 Z"/></g>
<g><path style="opacity:0.127" fill="#17181b" d="M 918.5,74.5 C 920.584,76.993 920.917,79.6596 919.5,82.5C 919.425,79.7938 919.092,77.1272 918.5,74.5 Z"/></g>
<g><path style="opacity:0.659" fill="#434a53" d="M 934.5,69.5 C 938.131,76.1108 938.131,82.4441 934.5,88.5C 935.833,82.1667 935.833,75.8333 934.5,69.5 Z"/></g>
<g><path style="opacity:0.573" fill="#41444a" d="M 226.5,78.5 C 224.427,80.5798 222.093,82.2464 219.5,83.5C 220.96,81.5372 222.627,79.7038 224.5,78C 225.437,77.3083 226.103,77.475 226.5,78.5 Z"/></g>
<g><path style="opacity:0.431" fill="#363d45" d="M 226.5,78.5 C 227.906,78.9731 228.573,79.9731 228.5,81.5C 227.094,81.0269 226.427,80.0269 226.5,78.5 Z"/></g>
<g><path style="opacity:0.943" fill="#dbdfe4" d="M 599.5,19.5 C 604.5,19.5 609.5,19.5 614.5,19.5C 614.5,42.1667 614.5,64.8333 614.5,87.5C 613.503,65.3396 613.169,43.0062 613.5,20.5C 609.167,20.5 604.833,20.5 600.5,20.5C 600.5,47.5 600.5,74.5 600.5,101.5C 616.833,101.5 633.167,101.5 649.5,101.5C 649.5,96.8333 649.5,92.1667 649.5,87.5C 650.487,92.3054 650.821,97.3054 650.5,102.5C 633.5,102.5 616.5,102.5 599.5,102.5C 599.5,74.8333 599.5,47.1667 599.5,19.5 Z"/></g>
<g><path style="opacity:1" fill="#fefefe" d="M 614.5,87.5 C 626.167,87.5 637.833,87.5 649.5,87.5C 649.5,92.1667 649.5,96.8333 649.5,101.5C 633.167,101.5 616.833,101.5 600.5,101.5C 600.5,74.5 600.5,47.5 600.5,20.5C 604.833,20.5 609.167,20.5 613.5,20.5C 613.169,43.0062 613.503,65.3396 614.5,87.5 Z"/></g>
<g><path style="opacity:0.267" fill="#292b2f" d="M 688.5,77.5 C 688.598,79.5529 687.931,81.2196 686.5,82.5C 686.402,80.4471 687.069,78.7804 688.5,77.5 Z"/></g>
<g><path style="opacity:0.208" fill="#161a20" d="M 889.5,78.5 C 890.906,78.9731 891.573,79.9731 891.5,81.5C 890.094,81.0269 889.427,80.0269 889.5,78.5 Z"/></g>
<g><path style="opacity:0.259" fill="#24262b" d="M 259.5,69.5 C 259.833,69.5 260.167,69.5 260.5,69.5C 261.524,74.929 262.857,80.2623 264.5,85.5C 261.616,80.6575 259.95,75.3242 259.5,69.5 Z"/></g>
<g><path style="opacity:0.173" fill="#1a1d23" d="M 281.5,79.5 C 282.931,80.7804 283.598,82.4471 283.5,84.5C 282.069,83.2196 281.402,81.5529 281.5,79.5 Z"/></g>
<g><path style="opacity:0.282" fill="#1c1f23" d="M 354.5,73.5 C 355.558,74.6002 356.392,75.9336 357,77.5C 357.333,80.5 357.667,83.5 358,86.5C 358.383,85.944 358.883,85.6107 359.5,85.5C 359.179,87.0481 358.179,87.7148 356.5,87.5C 356.577,82.8808 355.91,78.2142 354.5,73.5 Z"/></g>
<g><path style="opacity:0.012" fill="#343639" d="M 423.5,81.5 C 427.898,84.8947 431.564,88.8947 434.5,93.5C 430.102,90.1053 426.436,86.1053 423.5,81.5 Z"/></g>
<g><path style="opacity:0.376" fill="#2b2d30" d="M 831.5,80.5 C 831.573,82.0269 830.906,83.0269 829.5,83.5C 829.427,81.9731 830.094,80.9731 831.5,80.5 Z"/></g>
<g><path style="opacity:0.667" fill="#494c52" d="M 883.5,81.5 C 883.027,82.9063 882.027,83.573 880.5,83.5C 880.973,82.0937 881.973,81.427 883.5,81.5 Z"/></g>
<g><path style="opacity:0.667" fill="#40454d" d="M 891.5,81.5 C 892.833,82.1667 893.833,83.1667 894.5,84.5C 892.5,84.5 891.5,83.5 891.5,81.5 Z"/></g>
<g><path style="opacity:0.545" fill="#3e434b" d="M 228.5,81.5 C 230.262,82.2623 231.262,83.5956 231.5,85.5C 229.738,84.7377 228.738,83.4044 228.5,81.5 Z"/></g>
<g><path style="opacity:0.026" fill="#1c1d1f" d="M 300.5,79.5 C 298.961,84.3457 298.294,89.3457 298.5,94.5C 296.862,89.2243 297.528,84.2243 300.5,79.5 Z"/></g>
<g><path style="opacity:0.62" fill="#44474c" d="M 919.5,82.5 C 919.5,84.5 918.5,85.5 916.5,85.5C 917.167,84.1667 918.167,83.1667 919.5,82.5 Z"/></g>
<g><path style="opacity:0.18" fill="#24282f" d="M 749.5,83.5 C 751.104,84.287 751.771,85.6203 751.5,87.5C 750.326,86.4863 749.66,85.153 749.5,83.5 Z"/></g>
<g><path style="opacity:0.318" fill="#292b30" d="M 828.5,84.5 C 827.713,86.1042 826.38,86.7709 824.5,86.5C 825.514,85.3263 826.847,84.6596 828.5,84.5 Z"/></g>
<g><path style="opacity:0.314" fill="#282b2f" d="M 69.5,83.5 C 68.6236,87.5821 66.9569,91.2488 64.5,94.5C 65.3764,90.4179 67.0431,86.7512 69.5,83.5 Z"/></g>
<g><path style="opacity:0.176" fill="#0f1116" d="M 805.5,83.5 C 806.404,84.209 806.737,85.209 806.5,86.5C 812.5,86.5 818.5,86.5 824.5,86.5C 818.355,87.4902 812.022,87.8235 805.5,87.5C 805.5,86.1667 805.5,84.8333 805.5,83.5 Z"/></g>
<g><path style="opacity:0.427" fill="#313741" d="M 847.5,83.5 C 847.598,85.5529 846.931,87.2196 845.5,88.5C 845.402,86.4471 846.069,84.7804 847.5,83.5 Z"/></g>
<g><path style="opacity:0.765" fill="#4a4c52" d="M 880.5,83.5 C 878.615,85.0532 877.615,87.0532 877.5,89.5C 876.733,88.828 876.066,87.9947 875.5,87C 876.789,85.1978 878.456,84.0312 880.5,83.5 Z"/></g>
<g><path style="opacity:0.21" fill="#1d2025" d="M 190.5,83.5 C 196.438,86.5667 202.771,87.9001 209.5,87.5C 202.469,89.6156 196.135,88.2822 190.5,83.5 Z"/></g>
<g><path style="opacity:0.459" fill="#393e46" d="M 231.5,85.5 C 232.906,85.9731 233.573,86.9731 233.5,88.5C 232.094,88.0269 231.427,87.0269 231.5,85.5 Z"/></g>
<g><path style="opacity:0.149" fill="#1b1d20" d="M 271.5,75.5 C 273.736,79.6446 275.736,83.978 277.5,88.5C 274.171,84.8394 272.171,80.5061 271.5,75.5 Z"/></g>
<g><path style="opacity:0.204" fill="#1e2128" d="M 283.5,84.5 C 284.931,85.7804 285.598,87.4471 285.5,89.5C 284.069,88.2196 283.402,86.5529 283.5,84.5 Z"/></g>
<g><path style="opacity:0.204" fill="#1e2127" d="M 894.5,84.5 C 899.865,87.0057 905.531,88.0057 911.5,87.5C 908.024,88.6433 904.358,88.8099 900.5,88C 897.975,87.5762 895.975,86.4095 894.5,84.5 Z"/></g>
<g><path style="opacity:0.867" fill="#636974" d="M 134.5,85.5 C 135.537,86.9303 136.204,88.597 136.5,90.5C 134.787,89.3646 134.12,87.698 134.5,85.5 Z"/></g>
<g><path style="opacity:0.067" fill="#25272a" d="M 265.5,87.5 C 266.906,87.9731 267.573,88.9731 267.5,90.5C 266.094,90.0269 265.427,89.0269 265.5,87.5 Z"/></g>
<g><path style="opacity:0.464" fill="#30353e" d="M 347.5,80.5 C 348.222,80.9175 348.722,81.5842 349,82.5C 349.667,87.5 349.667,92.5 349,97.5C 348.576,100.025 347.41,102.025 345.5,103.5C 348.569,96.0711 349.236,88.4044 347.5,80.5 Z"/></g>
<g><path style="opacity:0.784" fill="#4f545c" d="M 233.5,88.5 C 236.167,89.8333 236.167,91.1667 233.5,92.5C 233.5,91.1667 233.5,89.8333 233.5,88.5 Z"/></g>
<g><path style="opacity:0.169" fill="#191b20" d="M 121.5,95.5 C 120.609,94.7387 119.942,93.7387 119.5,92.5C 107.5,91.1667 95.5,91.1667 83.5,92.5C 82.7255,94.3964 81.7255,96.063 80.5,97.5C 80.5861,95.323 81.2528,93.323 82.5,91.5C 95.1667,90.1667 107.833,90.1667 120.5,91.5C 121.246,92.7362 121.579,94.0695 121.5,95.5 Z"/></g>
<g><path style="opacity:0.263" fill="#2b2e33" d="M 277.5,88.5 C 278.906,88.9731 279.573,89.9731 279.5,91.5C 278.094,91.0269 277.427,90.0269 277.5,88.5 Z"/></g>
<g><path style="opacity:0.163" fill="#0f1216" d="M 699.5,91.5 C 705.491,90.8338 711.657,90.5004 718,90.5C 724.538,90.5038 730.705,91.1704 736.5,92.5C 724.247,91.5208 711.913,91.1874 699.5,91.5 Z"/></g>
<g><path style="opacity:0.929" fill="#696f77" d="M 751.5,87.5 C 752.674,88.5137 753.34,89.847 753.5,91.5C 751.824,90.8166 751.157,89.4832 751.5,87.5 Z"/></g>
<g><path style="opacity:0.039" fill="#242529" d="M 877.5,89.5 C 878.906,89.9731 879.573,90.9731 879.5,92.5C 878.094,92.0269 877.427,91.0269 877.5,89.5 Z"/></g>
<g><path style="opacity:0.039" fill="#26272b" d="M 267.5,90.5 C 268.906,90.9731 269.573,91.9731 269.5,93.5C 268.094,93.0269 267.427,92.0269 267.5,90.5 Z"/></g>
<g><path style="opacity:0.247" fill="#1d2127" d="M 271.5,89.5 C 272.906,89.9731 273.573,90.9731 273.5,92.5C 272.094,92.0269 271.427,91.0269 271.5,89.5 Z"/></g>
<g><path style="opacity:0.914" fill="#65676c" d="M 280.5,93.5 C 282.446,94.0347 283.446,95.368 283.5,97.5C 282.026,96.5637 281.026,95.2303 280.5,93.5 Z"/></g>
<g><path style="opacity:0.733" fill="#4c4e53" d="M 434.5,93.5 C 435.833,93.5 436.5,94.1667 436.5,95.5C 435.5,95.1667 434.833,94.5 434.5,93.5 Z"/></g>
<g><path style="opacity:0.251" fill="#282c36" d="M 699.5,91.5 C 699.771,93.3797 699.104,94.713 697.5,95.5C 697.66,93.847 698.326,92.5137 699.5,91.5 Z"/></g>
<g><path style="opacity:0.267" fill="#242830" d="M 753.5,91.5 C 754.931,92.7804 755.598,94.4471 755.5,96.5C 754.069,95.2196 753.402,93.5529 753.5,91.5 Z"/></g>
<g><path style="opacity:0.357" fill="#37393e" d="M 174.5,91.5 C 177.089,92.4194 179.089,94.086 180.5,96.5C 177.911,95.5806 175.911,93.914 174.5,91.5 Z"/></g>
<g><path style="opacity:0.035" fill="#1c1d22" d="M 231.5,94.5 C 231.027,95.9063 230.027,96.573 228.5,96.5C 228.973,95.0937 229.973,94.427 231.5,94.5 Z"/></g>
<g><path style="opacity:0.376" fill="#31353e" d="M 287.5,93.5 C 288.906,93.9731 289.573,94.9731 289.5,96.5C 288.094,96.0269 287.427,95.0269 287.5,93.5 Z"/></g>
<g><path style="opacity:0.776" fill="#55585e" d="M 436.5,95.5 C 437.833,95.5 438.5,96.1667 438.5,97.5C 437.5,97.1667 436.833,96.5 436.5,95.5 Z"/></g>
<g><path style="opacity:0.02" fill="#272b30" d="M 930.5,94.5 C 930.5,95.8333 929.833,96.5 928.5,96.5C 928.833,95.5 929.5,94.8333 930.5,94.5 Z"/></g>
<g><path style="opacity:0.506" fill="#40464f" d="M 274.5,94.5 C 275.906,94.9731 276.573,95.9731 276.5,97.5C 275.094,97.0269 274.427,96.0269 274.5,94.5 Z"/></g>
<g><path style="opacity:0.333" fill="#2a2d31" d="M 180.5,96.5 C 182.027,96.427 183.027,97.0937 183.5,98.5C 181.973,98.573 180.973,97.9063 180.5,96.5 Z"/></g>
<g><path style="opacity:0.016" fill="#101013" d="M 298.5,94.5 C 299.434,95.5676 299.768,96.901 299.5,98.5C 297.891,97.3346 297.557,96.0012 298.5,94.5 Z"/></g>
<g><path style="opacity:0.029" fill="#191b1f" d="M 697.5,95.5 C 697.88,97.698 697.213,99.3646 695.5,100.5C 695.796,98.597 696.463,96.9303 697.5,95.5 Z"/></g>
<g><path style="opacity:0.627" fill="#4d5055" d="M 883.5,96.5 C 885.404,96.7376 886.738,97.7376 887.5,99.5C 885.596,99.2624 884.262,98.2624 883.5,96.5 Z"/></g>
<g><path style="opacity:0.071" fill="#24262a" d="M 283.5,97.5 C 284.906,97.9731 285.573,98.9731 285.5,100.5C 284.094,100.027 283.427,99.0269 283.5,97.5 Z"/></g>
<g><path style="opacity:0.282" fill="#2a2e35" d="M 225.5,98.5 C 223.421,100.873 220.754,102.206 217.5,102.5C 219.849,100.659 222.515,99.3257 225.5,98.5 Z"/></g>
<g><path style="opacity:0.678" fill="#50535a" d="M 270.5,94.5 C 272.463,95.9599 274.296,97.6266 276,99.5C 276.464,98.9056 276.631,98.2389 276.5,97.5C 279.239,99.3344 280.573,101.668 280.5,104.5C 276.124,102.124 272.79,98.7905 270.5,94.5 Z"/></g>
<g><path style="opacity:0.173" fill="#1e2024" d="M 299.5,98.5 C 300.674,99.5137 301.34,100.847 301.5,102.5C 299.896,101.713 299.229,100.38 299.5,98.5 Z"/></g>
<g><path style="opacity:0.863" fill="#56595f" d="M 187.5,100.5 C 191.162,100.723 194.495,101.723 197.5,103.5C 193.714,103.68 190.381,102.68 187.5,100.5 Z"/></g>
<g><path style="opacity:0.576" fill="#454952" d="M 290.5,98.5 C 292.262,99.2623 293.262,100.596 293.5,102.5C 291.738,101.738 290.738,100.404 290.5,98.5 Z"/></g>
<g><path style="opacity:0.161" fill="#25272b" d="M 887.5,99.5 C 889.153,99.6596 890.486,100.326 891.5,101.5C 889.62,101.771 888.287,101.104 887.5,99.5 Z"/></g>
<g><path style="opacity:0.255" fill="#26292f" d="M 924.5,99.5 C 923.089,101.539 921.089,102.539 918.5,102.5C 920.181,100.992 922.181,99.9925 924.5,99.5 Z"/></g>
<g><path style="opacity:0.319" fill="#23272d" d="M 62.5,98.5 C 62.5,99.8333 62.5,101.167 62.5,102.5C 67.8333,102.5 73.1667,102.5 78.5,102.5C 76.3157,103.266 73.9823,103.933 71.5,104.5C 67.9062,103.574 64.2396,103.241 60.5,103.5C 60.4021,101.447 61.0687,99.7804 62.5,98.5 Z"/></g>
<g><path style="opacity:0.312" fill="#272a31" d="M 122.5,97.5 C 123.601,98.8484 124.601,100.348 125.5,102C 130.489,102.499 135.489,102.666 140.5,102.5C 140.5,101.167 140.5,99.8333 140.5,98.5C 141.931,99.7804 142.598,101.447 142.5,103.5C 136.491,103.666 130.491,103.499 124.5,103C 123.139,101.416 122.472,99.5824 122.5,97.5 Z"/></g>
<g><path style="opacity:0.408" fill="#1c2025" d="M 384.5,19.5 C 383.609,18.8902 382.609,18.5569 381.5,18.5C 380.502,46.3284 380.169,74.3284 380.5,102.5C 385.5,102.5 390.5,102.5 395.5,102.5C 394.848,85.7991 395.515,69.4658 397.5,53.5C 397.5,53.8333 397.5,54.1667 397.5,54.5C 398.5,54.8333 399.167,55.5 399.5,56.5C 397.955,57.2297 397.122,58.563 397,60.5C 396.5,74.8295 396.333,89.1628 396.5,103.5C 390.869,104.351 385.203,104.351 379.5,103.5C 378.262,74.8263 378.262,46.1596 379.5,17.5C 381.781,17.0773 383.448,17.744 384.5,19.5 Z"/></g>
<g><path style="opacity:0.316" fill="#22262d" d="M 678.5,99.5 C 678.5,100.5 678.5,101.5 678.5,102.5C 683.833,102.5 689.167,102.5 694.5,102.5C 688.654,103.817 682.654,103.817 676.5,102.5C 676.942,101.261 677.609,100.261 678.5,99.5 Z"/></g>
<g><path style="opacity:0.31" fill="#21252b" d="M 736.5,92.5 C 738.392,95.2765 740.059,98.2765 741.5,101.5C 746.833,102.833 752.167,102.833 757.5,101.5C 756.544,99.9246 755.877,98.258 755.5,96.5C 757.834,98.1757 758.834,100.509 758.5,103.5C 752.463,103.829 746.463,103.496 740.5,102.5C 738.594,99.36 737.26,96.0266 736.5,92.5 Z"/></g>
<g><path style="opacity:0.557" fill="#464a50" d="M 891.5,101.5 C 893.898,101.259 895.898,101.926 897.5,103.5C 895.102,103.741 893.102,103.074 891.5,101.5 Z"/></g>
<g><path style="opacity:0.531" fill="#373b42" d="M 217.5,102.5 C 213.777,103.997 209.777,104.663 205.5,104.5C 202.645,104.497 199.978,104.164 197.5,103.5C 204.196,103.609 210.863,103.276 217.5,102.5 Z"/></g>
<g><path style="opacity:0.553" fill="#3c4047" d="M 918.5,102.5 C 914.777,103.997 910.777,104.663 906.5,104.5C 903.645,104.497 900.978,104.164 898.5,103.5C 905.196,103.609 911.863,103.276 918.5,102.5 Z"/></g>
<g><path style="opacity:0.627" fill="#4d4f53" d="M 287.5,102.5 C 290.452,104.785 293.118,107.452 295.5,110.5C 291.855,108.855 289.188,106.188 287.5,102.5 Z"/></g>
<g><path style="opacity:0.506" fill="#41464e" d="M 293.5,102.5 C 294.906,102.973 295.573,103.973 295.5,105.5C 294.094,105.027 293.427,104.027 293.5,102.5 Z"/></g>
<g><path style="opacity:0.055" fill="#232529" d="M 345.5,103.5 C 345.573,105.027 344.906,106.027 343.5,106.5C 343.427,104.973 344.094,103.973 345.5,103.5 Z"/></g>
<g><path style="opacity:0.855" fill="#4c5058" d="M 295.5,105.5 C 297.812,107.146 299.812,109.146 301.5,111.5C 299.701,112.788 298.035,112.788 296.5,111.5C 297.552,111.649 298.552,111.483 299.5,111C 297.536,109.549 296.203,107.716 295.5,105.5 Z"/></g>
<g><path style="opacity:0.024" fill="#2e3033" d="M 302.5,104.5 C 304.785,106.118 306.785,108.118 308.5,110.5C 305.522,109.522 303.522,107.522 302.5,104.5 Z"/></g>
<g><path style="opacity:0.004" fill="#181a1d" d="M 340.5,109.5 C 340.027,110.906 339.027,111.573 337.5,111.5C 337.973,110.094 338.973,109.427 340.5,109.5 Z"/></g>
<g><path style="opacity:0.29" fill="#2a2c30" d="M 308.5,110.5 C 310.027,110.427 311.027,111.094 311.5,112.5C 309.973,112.573 308.973,111.906 308.5,110.5 Z"/></g>
<g><path style="opacity:0.2" fill="#212328" d="M 337.5,111.5 C 336.089,113.539 334.089,114.539 331.5,114.5C 333.181,112.992 335.181,111.992 337.5,111.5 Z"/></g>
<g><path style="opacity:0.761" fill="#5e6167" d="M 313.5,113.5 C 318.13,114.229 322.797,114.563 327.5,114.5C 325.052,115.473 322.385,115.806 319.5,115.5C 317.102,115.741 315.102,115.074 313.5,113.5 Z"/></g>
<g><path style="opacity:0.029" fill="#07080a" d="M 327.5,114.5 C 328.833,114.5 330.167,114.5 331.5,114.5C 329.321,115.926 326.821,116.592 324,116.5C 322.293,116.492 320.793,116.158 319.5,115.5C 322.385,115.806 325.052,115.473 327.5,114.5 Z"/></g>
</svg>
